solid OpenSCAD_Model
  facet normal -1 0 0
    outer loop
      vertex 0 0 0
      vertex 0 0 20
      vertex 0 40 0
    endloop
  endfacet
  facet normal -1 0 0
    outer loop
      vertex 0 40 0
      vertex 0 0 20
      vertex 0 40 20
    endloop
  endfacet
  facet normal 0 -1 0
    outer loop
      vertex 8.5 0 5
      vertex 0 0 0
      vertex 12 0 0
    endloop
  endfacet
  facet normal 0 -1 0
    outer loop
      vertex 3.5 0 5
      vertex 3.5 0 20
      vertex 0 0 20
    endloop
  endfacet
  facet normal 0 -1 0
    outer loop
      vertex 12 0 20
      vertex 8.5 0 20
      vertex 12 0 0
    endloop
  endfacet
  facet normal 0 -1 0
    outer loop
      vertex 3.5 0 5
      vertex 0 0 0
      vertex 8.5 0 5
    endloop
  endfacet
  facet normal 0 -1 0
    outer loop
      vertex 0 0 20
      vertex 0 0 0
      vertex 3.5 0 5
    endloop
  endfacet
  facet normal 0 -1 0
    outer loop
      vertex 8.5 0 20
      vertex 8.5 0 5
      vertex 12 0 0
    endloop
  endfacet
  facet normal 0 0 -1
    outer loop
      vertex 0 0 0
      vertex 0 40 0
      vertex 12 0 0
    endloop
  endfacet
  facet normal 0 0 -1
    outer loop
      vertex 12 0 0
      vertex 0 40 0
      vertex 12 40 0
    endloop
  endfacet
  facet normal 0 1 0
    outer loop
      vertex 0 40 0
      vertex 0 40 20
      vertex 3.5 40 5
    endloop
  endfacet
  facet normal 0 1 0
    outer loop
      vertex 0 40 0
      vertex 3.5 40 5
      vertex 12 40 0
    endloop
  endfacet
  facet normal 0 1 0
    outer loop
      vertex 8.5 40 20
      vertex 12 40 0
      vertex 8.5 40 5
    endloop
  endfacet
  facet normal 0 1 0
    outer loop
      vertex 3.5 40 5
      vertex 8.5 40 5
      vertex 12 40 0
    endloop
  endfacet
  facet normal 0 1 0
    outer loop
      vertex 12 40 0
      vertex 8.5 40 20
      vertex 12 40 20
    endloop
  endfacet
  facet normal 0 1 0
    outer loop
      vertex 3.5 40 5
      vertex 0 40 20
      vertex 3.5 40 20
    endloop
  endfacet
  facet normal 0 0 1
    outer loop
      vertex 0 40 20
      vertex 0 0 20
      vertex 3.5 0 20
    endloop
  endfacet
  facet normal 0 0 1
    outer loop
      vertex 3.5 40 20
      vertex 0 40 20
      vertex 3.5 0 20
    endloop
  endfacet
  facet normal 1 0 0
    outer loop
      vertex 3.5 0 20
      vertex 3.5 0 5
      vertex 3.5 40 5
    endloop
  endfacet
  facet normal 1 0 0
    outer loop
      vertex 3.5 40 20
      vertex 3.5 0 20
      vertex 3.5 40 5
    endloop
  endfacet
  facet normal 0 0 1
    outer loop
      vertex 3.5 40 5
      vertex 3.5 0 5
      vertex 8.5 0 5
    endloop
  endfacet
  facet normal 0 0 1
    outer loop
      vertex 8.5 40 5
      vertex 3.5 40 5
      vertex 8.5 0 5
    endloop
  endfacet
  facet normal -1 0 0
    outer loop
      vertex 8.5 0 5
      vertex 8.5 0 20
      vertex 8.5 40 5
    endloop
  endfacet
  facet normal -1 0 0
    outer loop
      vertex 8.5 40 5
      vertex 8.5 0 20
      vertex 8.5 40 20
    endloop
  endfacet
  facet normal 0 0 1
    outer loop
      vertex 8.5 40 20
      vertex 8.5 0 20
      vertex 12 0 20
    endloop
  endfacet
  facet normal 0 0 1
    outer loop
      vertex 12 40 20
      vertex 8.5 40 20
      vertex 12 0 20
    endloop
  endfacet
  facet normal 1 0 0
    outer loop
      vertex 12 0 20
      vertex 12 0 0
      vertex 12 40 0
    endloop
  endfacet
  facet normal 1 0 0
    outer loop
      vertex 12 40 20
      vertex 12 0 20
      vertex 12 40 0
    endloop
  endfacet
endsolid OpenSCAD_Model
