solid OpenSCAD_Model
  facet normal -1 0 0
    outer loop
      vertex 0 0 0
      vertex 0 0 30
      vertex 0 40 0
    endloop
  endfacet
  facet normal -1 0 0
    outer loop
      vertex 0 40 0
      vertex 0 0 30
      vertex 0 40 30
    endloop
  endfacet
  facet normal 0 -1 0
    outer loop
      vertex 3 0 15
      vertex 0 0 0
      vertex 12 0 0
    endloop
  endfacet
  facet normal 0 -1 0
    outer loop
      vertex 3 0 15
      vertex 3 0 30
      vertex 0 0 30
    endloop
  endfacet
  facet normal 0 -1 0
    outer loop
      vertex 12 0 30
      vertex 9 0 30
      vertex 12 0 0
    endloop
  endfacet
  facet normal 0 -1 0
    outer loop
      vertex 9 0 30
      vertex 9 0 15
      vertex 12 0 0
    endloop
  endfacet
  facet normal 0 -1 0
    outer loop
      vertex 0 0 30
      vertex 0 0 0
      vertex 3 0 15
    endloop
  endfacet
  facet normal 0 -1 0
    outer loop
      vertex 9 0 15
      vertex 3 0 15
      vertex 12 0 0
    endloop
  endfacet
  facet normal 0 0 -1
    outer loop
      vertex 0 0 0
      vertex 0 40 0
      vertex 12 0 0
    endloop
  endfacet
  facet normal 0 0 -1
    outer loop
      vertex 12 0 0
      vertex 0 40 0
      vertex 12 40 0
    endloop
  endfacet
  facet normal 0 1 0
    outer loop
      vertex 9 40 15
      vertex 12 40 0
      vertex 3 40 15
    endloop
  endfacet
  facet normal 0 1 0
    outer loop
      vertex 0 40 0
      vertex 0 40 30
      vertex 3 40 15
    endloop
  endfacet
  facet normal 0 1 0
    outer loop
      vertex 0 40 0
      vertex 3 40 15
      vertex 12 40 0
    endloop
  endfacet
  facet normal 0 1 0
    outer loop
      vertex 12 40 0
      vertex 9 40 15
      vertex 9 40 30
    endloop
  endfacet
  facet normal 0 1 0
    outer loop
      vertex 12 40 0
      vertex 9 40 30
      vertex 12 40 30
    endloop
  endfacet
  facet normal 0 1 0
    outer loop
      vertex 3 40 15
      vertex 0 40 30
      vertex 3 40 30
    endloop
  endfacet
  facet normal 0 0 1
    outer loop
      vertex 0 40 30
      vertex 0 0 30
      vertex 3 0 30
    endloop
  endfacet
  facet normal 0 0 1
    outer loop
      vertex 3 40 30
      vertex 0 40 30
      vertex 3 0 30
    endloop
  endfacet
  facet normal 1 0 0
    outer loop
      vertex 3 0 30
      vertex 3 0 15
      vertex 3 40 15
    endloop
  endfacet
  facet normal 1 0 0
    outer loop
      vertex 3 40 30
      vertex 3 0 30
      vertex 3 40 15
    endloop
  endfacet
  facet normal 0 0 1
    outer loop
      vertex 3 40 15
      vertex 3 0 15
      vertex 9 0 15
    endloop
  endfacet
  facet normal 0 0 1
    outer loop
      vertex 9 40 15
      vertex 3 40 15
      vertex 9 0 15
    endloop
  endfacet
  facet normal -1 0 0
    outer loop
      vertex 9 0 15
      vertex 9 0 30
      vertex 9 40 15
    endloop
  endfacet
  facet normal -1 0 0
    outer loop
      vertex 9 40 15
      vertex 9 0 30
      vertex 9 40 30
    endloop
  endfacet
  facet normal 0 0 1
    outer loop
      vertex 9 40 30
      vertex 9 0 30
      vertex 12 0 30
    endloop
  endfacet
  facet normal 0 0 1
    outer loop
      vertex 12 40 30
      vertex 9 40 30
      vertex 12 0 30
    endloop
  endfacet
  facet normal 1 0 0
    outer loop
      vertex 12 0 30
      vertex 12 0 0
      vertex 12 40 0
    endloop
  endfacet
  facet normal 1 0 0
    outer loop
      vertex 12 40 30
      vertex 12 0 30
      vertex 12 40 0
    endloop
  endfacet
endsolid OpenSCAD_Model
