solid OpenSCAD_Model
  facet normal -1 0 0
    outer loop
      vertex 0 0 0
      vertex 0 0 20
      vertex 0 3.5 5
    endloop
  endfacet
  facet normal -1 0 0
    outer loop
      vertex 0 0 0
      vertex 0 3.5 5
      vertex 0 12 0
    endloop
  endfacet
  facet normal -1 0 0
    outer loop
      vertex 0 8.5 20
      vertex 0 12 0
      vertex 0 8.5 5
    endloop
  endfacet
  facet normal -1 0 0
    outer loop
      vertex 0 3.5 5
      vertex 0 8.5 5
      vertex 0 12 0
    endloop
  endfacet
  facet normal -1 0 0
    outer loop
      vertex 0 12 0
      vertex 0 8.5 20
      vertex 0 12 20
    endloop
  endfacet
  facet normal -1 0 0
    outer loop
      vertex 0 3.5 5
      vertex 0 0 20
      vertex 0 3.5 20
    endloop
  endfacet
  facet normal 0 -1 0
    outer loop
      vertex 0 0 20
      vertex 0 0 0
      vertex 40 0 0
    endloop
  endfacet
  facet normal 0 -1 0
    outer loop
      vertex 40 0 20
      vertex 0 0 20
      vertex 40 0 0
    endloop
  endfacet
  facet normal 0 0 -1
    outer loop
      vertex 0 0 0
      vertex 0 12 0
      vertex 40 0 0
    endloop
  endfacet
  facet normal 0 0 -1
    outer loop
      vertex 40 0 0
      vertex 0 12 0
      vertex 40 12 0
    endloop
  endfacet
  facet normal 0 1 0
    outer loop
      vertex 0 12 0
      vertex 0 12 20
      vertex 40 12 0
    endloop
  endfacet
  facet normal 0 1 0
    outer loop
      vertex 40 12 0
      vertex 0 12 20
      vertex 40 12 20
    endloop
  endfacet
  facet normal 0 0 1
    outer loop
      vertex 0 12 20
      vertex 0 8.5 20
      vertex 40 8.5 20
    endloop
  endfacet
  facet normal 0 0 1
    outer loop
      vertex 40 12 20
      vertex 0 12 20
      vertex 40 8.5 20
    endloop
  endfacet
  facet normal 0 -1 0
    outer loop
      vertex 0 8.5 20
      vertex 0 8.5 5
      vertex 40 8.5 5
    endloop
  endfacet
  facet normal 0 -1 0
    outer loop
      vertex 40 8.5 20
      vertex 0 8.5 20
      vertex 40 8.5 5
    endloop
  endfacet
  facet normal 0 0 1
    outer loop
      vertex 0 8.5 5
      vertex 0 3.5 5
      vertex 40 3.5 5
    endloop
  endfacet
  facet normal 0 0 1
    outer loop
      vertex 40 8.5 5
      vertex 0 8.5 5
      vertex 40 3.5 5
    endloop
  endfacet
  facet normal 0 1 0
    outer loop
      vertex 0 3.5 5
      vertex 0 3.5 20
      vertex 40 3.5 5
    endloop
  endfacet
  facet normal 0 1 0
    outer loop
      vertex 40 3.5 5
      vertex 0 3.5 20
      vertex 40 3.5 20
    endloop
  endfacet
  facet normal 0 0 1
    outer loop
      vertex 0 3.5 20
      vertex 0 0 20
      vertex 40 0 20
    endloop
  endfacet
  facet normal 0 0 1
    outer loop
      vertex 40 3.5 20
      vertex 0 3.5 20
      vertex 40 0 20
    endloop
  endfacet
  facet normal 1 0 0
    outer loop
      vertex 40 8.5 5
      vertex 40 0 0
      vertex 40 12 0
    endloop
  endfacet
  facet normal 1 0 0
    outer loop
      vertex 40 3.5 5
      vertex 40 3.5 20
      vertex 40 0 20
    endloop
  endfacet
  facet normal 1 0 0
    outer loop
      vertex 40 12 20
      vertex 40 8.5 20
      vertex 40 12 0
    endloop
  endfacet
  facet normal 1 0 0
    outer loop
      vertex 40 3.5 5
      vertex 40 0 0
      vertex 40 8.5 5
    endloop
  endfacet
  facet normal 1 0 0
    outer loop
      vertex 40 0 20
      vertex 40 0 0
      vertex 40 3.5 5
    endloop
  endfacet
  facet normal 1 0 0
    outer loop
      vertex 40 8.5 20
      vertex 40 8.5 5
      vertex 40 12 0
    endloop
  endfacet
endsolid OpenSCAD_Model
