solid OpenSCAD_Model
  facet normal -1 0 0
    outer loop
      vertex 0 0 0
      vertex 0 0 66
      vertex 0 60 0
    endloop
  endfacet
  facet normal -1 0 0
    outer loop
      vertex 0 60 0
      vertex 0 0 66
      vertex 0 60 66
    endloop
  endfacet
  facet normal 0 -1 0
    outer loop
      vertex 3 0 41
      vertex 0 0 0
      vertex 12 0 0
    endloop
  endfacet
  facet normal 0 -1 0
    outer loop
      vertex 3 0 41
      vertex 3 0 66
      vertex 0 0 66
    endloop
  endfacet
  facet normal 0 -1 0
    outer loop
      vertex 12 0 66
      vertex 9 0 66
      vertex 12 0 0
    endloop
  endfacet
  facet normal 0 -1 0
    outer loop
      vertex 9 0 66
      vertex 9 0 41
      vertex 12 0 0
    endloop
  endfacet
  facet normal 0 -1 0
    outer loop
      vertex 0 0 66
      vertex 0 0 0
      vertex 3 0 41
    endloop
  endfacet
  facet normal 0 -1 0
    outer loop
      vertex 9 0 41
      vertex 3 0 41
      vertex 12 0 0
    endloop
  endfacet
  facet normal 0 0 -1
    outer loop
      vertex 0 0 0
      vertex 0 60 0
      vertex 12 0 0
    endloop
  endfacet
  facet normal 0 0 -1
    outer loop
      vertex 12 0 0
      vertex 0 60 0
      vertex 12 60 0
    endloop
  endfacet
  facet normal 0 1 0
    outer loop
      vertex 9 60 41
      vertex 12 60 0
      vertex 3 60 41
    endloop
  endfacet
  facet normal 0 1 0
    outer loop
      vertex 0 60 0
      vertex 0 60 66
      vertex 3 60 41
    endloop
  endfacet
  facet normal 0 1 0
    outer loop
      vertex 0 60 0
      vertex 3 60 41
      vertex 12 60 0
    endloop
  endfacet
  facet normal 0 1 0
    outer loop
      vertex 12 60 0
      vertex 9 60 41
      vertex 9 60 66
    endloop
  endfacet
  facet normal 0 1 0
    outer loop
      vertex 12 60 0
      vertex 9 60 66
      vertex 12 60 66
    endloop
  endfacet
  facet normal 0 1 0
    outer loop
      vertex 3 60 41
      vertex 0 60 66
      vertex 3 60 66
    endloop
  endfacet
  facet normal 0 0 1
    outer loop
      vertex 0 60 66
      vertex 0 0 66
      vertex 3 0 66
    endloop
  endfacet
  facet normal 0 0 1
    outer loop
      vertex 3 60 66
      vertex 0 60 66
      vertex 3 0 66
    endloop
  endfacet
  facet normal 1 0 0
    outer loop
      vertex 3 0 66
      vertex 3 0 41
      vertex 3 60 41
    endloop
  endfacet
  facet normal 1 0 0
    outer loop
      vertex 3 60 66
      vertex 3 0 66
      vertex 3 60 41
    endloop
  endfacet
  facet normal 0 0 1
    outer loop
      vertex 3 60 41
      vertex 3 0 41
      vertex 9 0 41
    endloop
  endfacet
  facet normal 0 0 1
    outer loop
      vertex 9 60 41
      vertex 3 60 41
      vertex 9 0 41
    endloop
  endfacet
  facet normal -1 0 0
    outer loop
      vertex 9 0 41
      vertex 9 0 66
      vertex 9 60 41
    endloop
  endfacet
  facet normal -1 0 0
    outer loop
      vertex 9 60 41
      vertex 9 0 66
      vertex 9 60 66
    endloop
  endfacet
  facet normal 0 0 1
    outer loop
      vertex 9 60 66
      vertex 9 0 66
      vertex 12 0 66
    endloop
  endfacet
  facet normal 0 0 1
    outer loop
      vertex 12 60 66
      vertex 9 60 66
      vertex 12 0 66
    endloop
  endfacet
  facet normal 1 0 0
    outer loop
      vertex 12 0 66
      vertex 12 0 0
      vertex 12 60 0
    endloop
  endfacet
  facet normal 1 0 0
    outer loop
      vertex 12 60 66
      vertex 12 0 66
      vertex 12 60 0
    endloop
  endfacet
endsolid OpenSCAD_Model
