solid OpenSCAD_Model
  facet normal -1 0 0
    outer loop
      vertex -20 17 5
      vertex -20 20 0
      vertex -20 -17 5
    endloop
  endfacet
  facet normal -1 0 0
    outer loop
      vertex -20 -20 0
      vertex -20 -20 10
      vertex -20 -17 5
    endloop
  endfacet
  facet normal -1 0 0
    outer loop
      vertex -20 -20 0
      vertex -20 -17 5
      vertex -20 20 0
    endloop
  endfacet
  facet normal -1 0 0
    outer loop
      vertex -20 20 0
      vertex -20 17 5
      vertex -20 17 10
    endloop
  endfacet
  facet normal -1 0 0
    outer loop
      vertex -20 20 0
      vertex -20 17 10
      vertex -20 20 10
    endloop
  endfacet
  facet normal -1 0 0
    outer loop
      vertex -20 -17 5
      vertex -20 -20 10
      vertex -20 -17 10
    endloop
  endfacet
  facet normal 0 -1 0
    outer loop
      vertex -17 -20 5
      vertex -20 -20 0
      vertex 20 -20 0
    endloop
  endfacet
  facet normal 0 -1 0
    outer loop
      vertex -17 -20 5
      vertex -17 -20 10
      vertex -20 -20 10
    endloop
  endfacet
  facet normal 0 -1 0
    outer loop
      vertex 20 -20 10
      vertex 17 -20 10
      vertex 20 -20 0
    endloop
  endfacet
  facet normal 0 -1 0
    outer loop
      vertex 17 -20 10
      vertex 17 -20 5
      vertex 20 -20 0
    endloop
  endfacet
  facet normal 0 -1 0
    outer loop
      vertex -20 -20 10
      vertex -20 -20 0
      vertex -17 -20 5
    endloop
  endfacet
  facet normal 0 -1 0
    outer loop
      vertex 17 -20 5
      vertex -17 -20 5
      vertex 20 -20 0
    endloop
  endfacet
  facet normal 0 0 -1
    outer loop
      vertex -20 -20 0
      vertex -20 20 0
      vertex 20 -20 0
    endloop
  endfacet
  facet normal 0 0 -1
    outer loop
      vertex 20 -20 0
      vertex -20 20 0
      vertex 20 20 0
    endloop
  endfacet
  facet normal 0 1 0
    outer loop
      vertex 17 20 5
      vertex 20 20 0
      vertex -17 20 5
    endloop
  endfacet
  facet normal 0 1 0
    outer loop
      vertex -20 20 0
      vertex -20 20 10
      vertex -17 20 5
    endloop
  endfacet
  facet normal 0 1 0
    outer loop
      vertex -20 20 0
      vertex -17 20 5
      vertex 20 20 0
    endloop
  endfacet
  facet normal 0 1 0
    outer loop
      vertex 20 20 0
      vertex 17 20 5
      vertex 17 20 10
    endloop
  endfacet
  facet normal 0 1 0
    outer loop
      vertex 20 20 0
      vertex 17 20 10
      vertex 20 20 10
    endloop
  endfacet
  facet normal 0 1 0
    outer loop
      vertex -17 20 5
      vertex -20 20 10
      vertex -17 20 10
    endloop
  endfacet
  facet normal 0 0 1
    outer loop
      vertex -20 20 10
      vertex -20 17 10
      vertex -17 20 10
    endloop
  endfacet
  facet normal 0.707107 -0.707107 0
    outer loop
      vertex -20 17 10
      vertex -20 17 5
      vertex -17 20 5
    endloop
  endfacet
  facet normal 0.707107 -0.707107 0
    outer loop
      vertex -17 20 10
      vertex -20 17 10
      vertex -17 20 5
    endloop
  endfacet
  facet normal 0 0 1
    outer loop
      vertex -20 17 5
      vertex -20 -17 5
      vertex -17 -20 5
    endloop
  endfacet
  facet normal 0 0 1
    outer loop
      vertex 20 -17 5
      vertex -20 17 5
      vertex 17 -20 5
    endloop
  endfacet
  facet normal 0 0 1
    outer loop
      vertex 17 -20 5
      vertex -20 17 5
      vertex -17 -20 5
    endloop
  endfacet
  facet normal 0 0 1
    outer loop
      vertex 20 17 5
      vertex -20 17 5
      vertex 20 -17 5
    endloop
  endfacet
  facet normal 0 0 1
    outer loop
      vertex 17 20 5
      vertex -20 17 5
      vertex 20 17 5
    endloop
  endfacet
  facet normal 0 0 1
    outer loop
      vertex -17 20 5
      vertex -20 17 5
      vertex 17 20 5
    endloop
  endfacet
  facet normal 0.707107 0.707107 0
    outer loop
      vertex -20 -17 5
      vertex -20 -17 10
      vertex -17 -20 5
    endloop
  endfacet
  facet normal 0.707107 0.707107 0
    outer loop
      vertex -17 -20 5
      vertex -20 -17 10
      vertex -17 -20 10
    endloop
  endfacet
  facet normal 0 0 1
    outer loop
      vertex -20 -17 10
      vertex -20 -20 10
      vertex -17 -20 10
    endloop
  endfacet
  facet normal -0.707107 0.707107 0
    outer loop
      vertex 17 -20 5
      vertex 17 -20 10
      vertex 20 -17 5
    endloop
  endfacet
  facet normal -0.707107 0.707107 0
    outer loop
      vertex 20 -17 5
      vertex 17 -20 10
      vertex 20 -17 10
    endloop
  endfacet
  facet normal 0 0 1
    outer loop
      vertex 20 -17 10
      vertex 17 -20 10
      vertex 20 -20 10
    endloop
  endfacet
  facet normal 1 0 0
    outer loop
      vertex 20 -17 5
      vertex 20 -20 0
      vertex 20 20 0
    endloop
  endfacet
  facet normal 1 0 0
    outer loop
      vertex 20 -17 5
      vertex 20 -17 10
      vertex 20 -20 10
    endloop
  endfacet
  facet normal 1 0 0
    outer loop
      vertex 20 20 10
      vertex 20 17 10
      vertex 20 20 0
    endloop
  endfacet
  facet normal 1 0 0
    outer loop
      vertex 20 17 10
      vertex 20 17 5
      vertex 20 20 0
    endloop
  endfacet
  facet normal 1 0 0
    outer loop
      vertex 20 -20 10
      vertex 20 -20 0
      vertex 20 -17 5
    endloop
  endfacet
  facet normal 1 0 0
    outer loop
      vertex 20 17 5
      vertex 20 -17 5
      vertex 20 20 0
    endloop
  endfacet
  facet normal 0 0 1
    outer loop
      vertex 20 20 10
      vertex 17 20 10
      vertex 20 17 10
    endloop
  endfacet
  facet normal -0.707107 -0.707107 0
    outer loop
      vertex 17 20 10
      vertex 17 20 5
      vertex 20 17 5
    endloop
  endfacet
  facet normal -0.707107 -0.707107 0
    outer loop
      vertex 20 17 10
      vertex 17 20 10
      vertex 20 17 5
    endloop
  endfacet
endsolid OpenSCAD_Model
