solid OpenSCAD_Model
  facet normal -1 0 0
    outer loop
      vertex 0 -20 35
      vertex 0 0 35
      vertex 0 -20 0
    endloop
  endfacet
  facet normal -1 0 0
    outer loop
      vertex 0 -20 0
      vertex 0 0 35
      vertex 0 0 0
    endloop
  endfacet
  facet normal 0 0 -1
    outer loop
      vertex 0 0 0
      vertex 61 0 0
      vertex 0 -20 0
    endloop
  endfacet
  facet normal 0 0 -1
    outer loop
      vertex 31.25 -13.01 0
      vertex 61 0 0
      vertex 61 -13.01 0
    endloop
  endfacet
  facet normal 0 0 -1
    outer loop
      vertex 0 -20 0
      vertex 61 0 0
      vertex 31.25 -13.01 0
    endloop
  endfacet
  facet normal 0 0 -1
    outer loop
      vertex 31.25 -20 0
      vertex 0 -20 0
      vertex 31.25 -13.01 0
    endloop
  endfacet
  facet normal 0 1 0
    outer loop
      vertex 0 0 35
      vertex 15 0 35
      vertex 0 0 0
    endloop
  endfacet
  facet normal 0 1 0
    outer loop
      vertex 61 0 60
      vertex 15 0 35
      vertex 15 0 60
    endloop
  endfacet
  facet normal 0 1 0
    outer loop
      vertex 0 0 0
      vertex 15 0 35
      vertex 61 0 60
    endloop
  endfacet
  facet normal 0 1 0
    outer loop
      vertex 0 0 0
      vertex 61 0 60
      vertex 61 0 0
    endloop
  endfacet
  facet normal 0 -1 0
    outer loop
      vertex 0 -20 0
      vertex 31.25 -20 0
      vertex 31.25 -20 60
    endloop
  endfacet
  facet normal 0 -1 0
    outer loop
      vertex 15 -20 35
      vertex 0 -20 0
      vertex 31.25 -20 60
    endloop
  endfacet
  facet normal 0 -1 0
    outer loop
      vertex 15 -20 60
      vertex 15 -20 35
      vertex 31.25 -20 60
    endloop
  endfacet
  facet normal 0 -1 0
    outer loop
      vertex 15 -20 35
      vertex 0 -20 35
      vertex 0 -20 0
    endloop
  endfacet
  facet normal 0 0 1
    outer loop
      vertex 0 -20 35
      vertex 15 -20 35
      vertex 15 0 35
    endloop
  endfacet
  facet normal 0 0 1
    outer loop
      vertex 0 0 35
      vertex 0 -20 35
      vertex 15 0 35
    endloop
  endfacet
  facet normal 1 0 0
    outer loop
      vertex 31.25 -20 0
      vertex 31.25 -13.01 0
      vertex 31.25 -13.01 13.333
    endloop
  endfacet
  facet normal 1 0 0
    outer loop
      vertex 31.25 -13 60
      vertex 31.25 -20 0
      vertex 31.25 -13.01 13.333
    endloop
  endfacet
  facet normal 1 0 0
    outer loop
      vertex 31.25 -13 13.333
      vertex 31.25 -13 60
      vertex 31.25 -13.01 13.333
    endloop
  endfacet
  facet normal 1 0 0
    outer loop
      vertex 31.25 -13 60
      vertex 31.25 -20 60
      vertex 31.25 -20 0
    endloop
  endfacet
  facet normal 0 -1 0
    outer loop
      vertex 31.25 -13.01 0
      vertex 61 -13.01 0
      vertex 61 -13.01 13.333
    endloop
  endfacet
  facet normal 0 -1 0
    outer loop
      vertex 31.25 -13.01 13.333
      vertex 31.25 -13.01 0
      vertex 61 -13.01 13.333
    endloop
  endfacet
  facet normal 1 0 0
    outer loop
      vertex 61 -7 13.333
      vertex 61 0 0
      vertex 61 0 60
    endloop
  endfacet
  facet normal 1 0 0
    outer loop
      vertex 61 -7 13.333
      vertex 61 -13.01 13.333
      vertex 61 -13.01 0
    endloop
  endfacet
  facet normal 1 0 0
    outer loop
      vertex 61 -13.01 0
      vertex 61 0 0
      vertex 61 -7 13.333
    endloop
  endfacet
  facet normal 1 0 0
    outer loop
      vertex 61 -7 60
      vertex 61 -7 13.333
      vertex 61 0 60
    endloop
  endfacet
  facet normal 0 0 1
    outer loop
      vertex 15 -7 60
      vertex 61 -7 60
      vertex 61 0 60
    endloop
  endfacet
  facet normal 0 0 1
    outer loop
      vertex 15 0 60
      vertex 15 -7 60
      vertex 61 0 60
    endloop
  endfacet
  facet normal -1 0 0
    outer loop
      vertex 15 -20 60
      vertex 15 -13 60
      vertex 15 -20 35
    endloop
  endfacet
  facet normal -1 0 0
    outer loop
      vertex 15 -20 35
      vertex 15 -13 60
      vertex 15 -13 40
    endloop
  endfacet
  facet normal -1 0 0
    outer loop
      vertex 15 -20 35
      vertex 15 -13 40
      vertex 15 -7 40
    endloop
  endfacet
  facet normal -1 0 0
    outer loop
      vertex 15 -7 40
      vertex 15 -7 60
      vertex 15 0 60
    endloop
  endfacet
  facet normal -1 0 0
    outer loop
      vertex 15 -7 40
      vertex 15 0 60
      vertex 15 0 35
    endloop
  endfacet
  facet normal -1 0 0
    outer loop
      vertex 15 -7 40
      vertex 15 0 35
      vertex 15 -20 35
    endloop
  endfacet
  facet normal 0 0 1
    outer loop
      vertex 15 -20 60
      vertex 31.25 -20 60
      vertex 31.25 -13 60
    endloop
  endfacet
  facet normal 0 0 1
    outer loop
      vertex 15 -13 60
      vertex 15 -20 60
      vertex 31.25 -13 60
    endloop
  endfacet
  facet normal 0 1 0
    outer loop
      vertex 15 -13 60
      vertex 31.25 -13 60
      vertex 15 -13 40
    endloop
  endfacet
  facet normal 0 1 0
    outer loop
      vertex 20 -13 40
      vertex 31.25 -13 60
      vertex 31.25 -13 13.333
    endloop
  endfacet
  facet normal 0 1 0
    outer loop
      vertex 15 -13 40
      vertex 31.25 -13 60
      vertex 20 -13 40
    endloop
  endfacet
  facet normal 0 1 0
    outer loop
      vertex 20 -13 40
      vertex 31.25 -13 13.333
      vertex 20 -13 13.333
    endloop
  endfacet
  facet normal 0 0 1
    outer loop
      vertex 61 -13.01 13.333
      vertex 31.25 -13 13.333
      vertex 31.25 -13.01 13.333
    endloop
  endfacet
  facet normal 0 0 1
    outer loop
      vertex 61 -7 13.333
      vertex 31.25 -13 13.333
      vertex 61 -13.01 13.333
    endloop
  endfacet
  facet normal 0 0 1
    outer loop
      vertex 20 -13 13.333
      vertex 31.25 -13 13.333
      vertex 61 -7 13.333
    endloop
  endfacet
  facet normal 0 0 1
    outer loop
      vertex 20 -7 13.333
      vertex 20 -13 13.333
      vertex 61 -7 13.333
    endloop
  endfacet
  facet normal 0 -1 0
    outer loop
      vertex 61 -7 13.333
      vertex 20 -7 40
      vertex 20 -7 13.333
    endloop
  endfacet
  facet normal 0 -1 0
    outer loop
      vertex 61 -7 60
      vertex 20 -7 40
      vertex 61 -7 13.333
    endloop
  endfacet
  facet normal 0 -1 0
    outer loop
      vertex 15 -7 40
      vertex 20 -7 40
      vertex 61 -7 60
    endloop
  endfacet
  facet normal 0 -1 0
    outer loop
      vertex 15 -7 60
      vertex 15 -7 40
      vertex 61 -7 60
    endloop
  endfacet
  facet normal 0 0 1
    outer loop
      vertex 15 -13 40
      vertex 20 -13 40
      vertex 20 -7 40
    endloop
  endfacet
  facet normal 0 0 1
    outer loop
      vertex 15 -7 40
      vertex 15 -13 40
      vertex 20 -7 40
    endloop
  endfacet
  facet normal 1 0 0
    outer loop
      vertex 20 -13 13.333
      vertex 20 -7 13.333
      vertex 20 -7 40
    endloop
  endfacet
  facet normal 1 0 0
    outer loop
      vertex 20 -13 40
      vertex 20 -13 13.333
      vertex 20 -7 40
    endloop
  endfacet
endsolid OpenSCAD_Model
