solid OpenSCAD_Model
  facet normal -1 0 0
    outer loop
      vertex 0 -20 35
      vertex 0 0 35
      vertex 0 -20 0
    endloop
  endfacet
  facet normal -1 0 0
    outer loop
      vertex 0 -20 0
      vertex 0 0 35
      vertex 0 0 0
    endloop
  endfacet
  facet normal 0 0 -1
    outer loop
      vertex 0 0 0
      vertex 60 0 0
      vertex 0 -20 0
    endloop
  endfacet
  facet normal 0 0 -1
    outer loop
      vertex 29 -12.45 0
      vertex 60 0 0
      vertex 60 -12.45 0
    endloop
  endfacet
  facet normal 0 0 -1
    outer loop
      vertex 0 -20 0
      vertex 60 0 0
      vertex 29 -12.45 0
    endloop
  endfacet
  facet normal 0 0 -1
    outer loop
      vertex 29 -20 0
      vertex 0 -20 0
      vertex 29 -12.45 0
    endloop
  endfacet
  facet normal 0 1 0
    outer loop
      vertex 0 0 35
      vertex 15 0 35
      vertex 0 0 0
    endloop
  endfacet
  facet normal 0 1 0
    outer loop
      vertex 60 0 60
      vertex 15 0 35
      vertex 15 0 60
    endloop
  endfacet
  facet normal 0 1 0
    outer loop
      vertex 0 0 0
      vertex 15 0 35
      vertex 60 0 60
    endloop
  endfacet
  facet normal 0 1 0
    outer loop
      vertex 0 0 0
      vertex 60 0 60
      vertex 60 0 0
    endloop
  endfacet
  facet normal 0 -1 0
    outer loop
      vertex 0 -20 0
      vertex 29 -20 0
      vertex 29 -20 60
    endloop
  endfacet
  facet normal 0 -1 0
    outer loop
      vertex 15 -20 35
      vertex 0 -20 0
      vertex 29 -20 60
    endloop
  endfacet
  facet normal 0 -1 0
    outer loop
      vertex 15 -20 60
      vertex 15 -20 35
      vertex 29 -20 60
    endloop
  endfacet
  facet normal 0 -1 0
    outer loop
      vertex 15 -20 35
      vertex 0 -20 35
      vertex 0 -20 0
    endloop
  endfacet
  facet normal 0 0 1
    outer loop
      vertex 0 -20 35
      vertex 15 -20 35
      vertex 15 0 35
    endloop
  endfacet
  facet normal 0 0 1
    outer loop
      vertex 0 0 35
      vertex 0 -20 35
      vertex 15 0 35
    endloop
  endfacet
  facet normal 1 0 0
    outer loop
      vertex 29 -20 0
      vertex 29 -12.45 0
      vertex 29 -12.45 13.3333
    endloop
  endfacet
  facet normal 1 0 0
    outer loop
      vertex 29 -13.5 60
      vertex 29 -20 0
      vertex 29 -13.5 13.3333
    endloop
  endfacet
  facet normal 1 0 0
    outer loop
      vertex 29 -13.5 13.3333
      vertex 29 -20 0
      vertex 29 -12.45 13.3333
    endloop
  endfacet
  facet normal 1 0 0
    outer loop
      vertex 29 -20 60
      vertex 29 -20 0
      vertex 29 -13.5 60
    endloop
  endfacet
  facet normal 0 -1 0
    outer loop
      vertex 29 -12.45 0
      vertex 60 -12.45 0
      vertex 60 -12.45 13.3333
    endloop
  endfacet
  facet normal 0 -1 0
    outer loop
      vertex 29 -12.45 13.3333
      vertex 29 -12.45 0
      vertex 60 -12.45 13.3333
    endloop
  endfacet
  facet normal 1 0 0
    outer loop
      vertex 60 -7.5 13.3333
      vertex 60 0 0
      vertex 60 0 60
    endloop
  endfacet
  facet normal 1 0 0
    outer loop
      vertex 60 -7.5 13.3333
      vertex 60 -12.45 13.3333
      vertex 60 -12.45 0
    endloop
  endfacet
  facet normal 1 0 0
    outer loop
      vertex 60 -12.45 0
      vertex 60 0 0
      vertex 60 -7.5 13.3333
    endloop
  endfacet
  facet normal 1 0 0
    outer loop
      vertex 60 -7.5 60
      vertex 60 -7.5 13.3333
      vertex 60 0 60
    endloop
  endfacet
  facet normal 0 0 1
    outer loop
      vertex 15 -7.5 60
      vertex 60 -7.5 60
      vertex 60 0 60
    endloop
  endfacet
  facet normal 0 0 1
    outer loop
      vertex 15 0 60
      vertex 15 -7.5 60
      vertex 60 0 60
    endloop
  endfacet
  facet normal -1 0 0
    outer loop
      vertex 15 -20 60
      vertex 15 -13.5 60
      vertex 15 -20 35
    endloop
  endfacet
  facet normal -1 0 0
    outer loop
      vertex 15 -20 35
      vertex 15 -13.5 60
      vertex 15 -13.5 40
    endloop
  endfacet
  facet normal -1 0 0
    outer loop
      vertex 15 -20 35
      vertex 15 -13.5 40
      vertex 15 -7.5 40
    endloop
  endfacet
  facet normal -1 0 0
    outer loop
      vertex 15 -7.5 40
      vertex 15 -7.5 60
      vertex 15 0 60
    endloop
  endfacet
  facet normal -1 0 0
    outer loop
      vertex 15 -7.5 40
      vertex 15 0 60
      vertex 15 0 35
    endloop
  endfacet
  facet normal -1 0 0
    outer loop
      vertex 15 -7.5 40
      vertex 15 0 35
      vertex 15 -20 35
    endloop
  endfacet
  facet normal 0 0 1
    outer loop
      vertex 15 -20 60
      vertex 29 -20 60
      vertex 29 -13.5 60
    endloop
  endfacet
  facet normal 0 0 1
    outer loop
      vertex 15 -13.5 60
      vertex 15 -20 60
      vertex 29 -13.5 60
    endloop
  endfacet
  facet normal 0 1 0
    outer loop
      vertex 15 -13.5 60
      vertex 29 -13.5 60
      vertex 15 -13.5 40
    endloop
  endfacet
  facet normal 0 1 0
    outer loop
      vertex 20 -13.5 40
      vertex 29 -13.5 60
      vertex 29 -13.5 13.3333
    endloop
  endfacet
  facet normal 0 1 0
    outer loop
      vertex 15 -13.5 40
      vertex 29 -13.5 60
      vertex 20 -13.5 40
    endloop
  endfacet
  facet normal 0 1 0
    outer loop
      vertex 20 -13.5 40
      vertex 29 -13.5 13.3333
      vertex 20 -13.5 13.3333
    endloop
  endfacet
  facet normal 0 0 1
    outer loop
      vertex 20 -13.5 13.3333
      vertex 29 -13.5 13.3333
      vertex 29 -12.45 13.3333
    endloop
  endfacet
  facet normal 0 0 1
    outer loop
      vertex 60 -7.5 13.3333
      vertex 20 -13.5 13.3333
      vertex 29 -12.45 13.3333
    endloop
  endfacet
  facet normal 0 0 1
    outer loop
      vertex 60 -12.45 13.3333
      vertex 60 -7.5 13.3333
      vertex 29 -12.45 13.3333
    endloop
  endfacet
  facet normal 0 0 1
    outer loop
      vertex 60 -7.5 13.3333
      vertex 20 -7.5 13.3333
      vertex 20 -13.5 13.3333
    endloop
  endfacet
  facet normal 0 -1 0
    outer loop
      vertex 60 -7.5 13.3333
      vertex 20 -7.5 40
      vertex 20 -7.5 13.3333
    endloop
  endfacet
  facet normal 0 -1 0
    outer loop
      vertex 60 -7.5 60
      vertex 20 -7.5 40
      vertex 60 -7.5 13.3333
    endloop
  endfacet
  facet normal 0 -1 0
    outer loop
      vertex 15 -7.5 40
      vertex 20 -7.5 40
      vertex 60 -7.5 60
    endloop
  endfacet
  facet normal 0 -1 0
    outer loop
      vertex 15 -7.5 60
      vertex 15 -7.5 40
      vertex 60 -7.5 60
    endloop
  endfacet
  facet normal 0 0 1
    outer loop
      vertex 15 -13.5 40
      vertex 20 -13.5 40
      vertex 20 -7.5 40
    endloop
  endfacet
  facet normal 0 0 1
    outer loop
      vertex 15 -7.5 40
      vertex 15 -13.5 40
      vertex 20 -7.5 40
    endloop
  endfacet
  facet normal 1 0 0
    outer loop
      vertex 20 -13.5 13.3333
      vertex 20 -7.5 13.3333
      vertex 20 -7.5 40
    endloop
  endfacet
  facet normal 1 0 0
    outer loop
      vertex 20 -13.5 40
      vertex 20 -13.5 13.3333
      vertex 20 -7.5 40
    endloop
  endfacet
endsolid OpenSCAD_Model
