solid OpenSCAD_Model
  facet normal -1 0 0
    outer loop
      vertex 0 0 0
      vertex 0 0 11.7
      vertex 0 35 0
    endloop
  endfacet
  facet normal -1 0 0
    outer loop
      vertex 0 16 9.2
      vertex 0 0 11.7
      vertex 0 16 11.7
    endloop
  endfacet
  facet normal -1 0 0
    outer loop
      vertex 0 35 0
      vertex 0 0 11.7
      vertex 0 16 9.2
    endloop
  endfacet
  facet normal -1 0 0
    outer loop
      vertex 0 35 0
      vertex 0 23 9.2
      vertex 0 23 11.7
    endloop
  endfacet
  facet normal -1 0 0
    outer loop
      vertex 0 35 0
      vertex 0 23 11.7
      vertex 0 30 11.7
    endloop
  endfacet
  facet normal -1 0 0
    outer loop
      vertex 0 35 0
      vertex 0 30 11.7
      vertex 0 30 21.7
    endloop
  endfacet
  facet normal -1 0 0
    outer loop
      vertex 0 35 0
      vertex 0 30 21.7
      vertex 0 35 21.7
    endloop
  endfacet
  facet normal -1 0 0
    outer loop
      vertex 0 23 9.2
      vertex 0 35 0
      vertex 0 16 9.2
    endloop
  endfacet
  facet normal 0 -1 0
    outer loop
      vertex 0 0 11.7
      vertex 0 0 0
      vertex 20 0 0
    endloop
  endfacet
  facet normal 0 -1 0
    outer loop
      vertex 20 0 11.7
      vertex 0 0 11.7
      vertex 20 0 0
    endloop
  endfacet
  facet normal 0 0 -1
    outer loop
      vertex 0 0 0
      vertex 0 35 0
      vertex 20 0 0
    endloop
  endfacet
  facet normal 0 0 -1
    outer loop
      vertex 20 0 0
      vertex 0 35 0
      vertex 20 35 0
    endloop
  endfacet
  facet normal 0 1 0
    outer loop
      vertex 0 35 0
      vertex 0 35 21.7
      vertex 20 35 0
    endloop
  endfacet
  facet normal 0 1 0
    outer loop
      vertex 20 35 0
      vertex 0 35 21.7
      vertex 20 35 21.7
    endloop
  endfacet
  facet normal 0 0 1
    outer loop
      vertex 0 35 21.7
      vertex 0 30 21.7
      vertex 6.52037 30 21.7
    endloop
  endfacet
  facet normal 0 0 1
    outer loop
      vertex 9.0038 30.9287 21.7
      vertex 0 35 21.7
      vertex 7.09209 30.3674 21.7
    endloop
  endfacet
  facet normal 0 0 1
    outer loop
      vertex 7.09209 30.3674 21.7
      vertex 0 35 21.7
      vertex 6.52037 30 21.7
    endloop
  endfacet
  facet normal 0 0 1
    outer loop
      vertex 10.9962 30.9287 21.7
      vertex 0 35 21.7
      vertex 9.0038 30.9287 21.7
    endloop
  endfacet
  facet normal 0 0 1
    outer loop
      vertex 12.9079 30.3674 21.7
      vertex 0 35 21.7
      vertex 10.9962 30.9287 21.7
    endloop
  endfacet
  facet normal 0 0 1
    outer loop
      vertex 20 30 21.7
      vertex 0 35 21.7
      vertex 12.9079 30.3674 21.7
    endloop
  endfacet
  facet normal 0 0 1
    outer loop
      vertex 20 30 21.7
      vertex 12.9079 30.3674 21.7
      vertex 13.4796 30 21.7
    endloop
  endfacet
  facet normal 0 0 1
    outer loop
      vertex 20 35 21.7
      vertex 0 35 21.7
      vertex 20 30 21.7
    endloop
  endfacet
  facet normal 0 -1 0
    outer loop
      vertex 6.52037 30 11.7
      vertex 6.52037 30 21.7
      vertex 0 30 21.7
    endloop
  endfacet
  facet normal 0 -1 0
    outer loop
      vertex 0 30 11.7
      vertex 6.52037 30 11.7
      vertex 0 30 21.7
    endloop
  endfacet
  facet normal 0 0 1
    outer loop
      vertex 0 30 11.7
      vertex 3 24 11.7
      vertex 3.28355 25.9721 11.7
    endloop
  endfacet
  facet normal 0 0 1
    outer loop
      vertex 5.41598 29.2902 11.7
      vertex 0 30 11.7
      vertex 4.11123 27.7845 11.7
    endloop
  endfacet
  facet normal 0 0 1
    outer loop
      vertex 4.11123 27.7845 11.7
      vertex 0 30 11.7
      vertex 3.28355 25.9721 11.7
    endloop
  endfacet
  facet normal 0 0 1
    outer loop
      vertex 3.14378 23 11.7
      vertex 3 24 11.7
      vertex 0 30 11.7
    endloop
  endfacet
  facet normal 0 0 1
    outer loop
      vertex 6.52037 30 11.7
      vertex 0 30 11.7
      vertex 5.41598 29.2902 11.7
    endloop
  endfacet
  facet normal 0 0 1
    outer loop
      vertex 0 30 11.7
      vertex 0 23 11.7
      vertex 3.14378 23 11.7
    endloop
  endfacet
  facet normal 0 -1 0
    outer loop
      vertex 3.14378 23 9.2
      vertex 3.14378 23 11.7
      vertex 0 23 11.7
    endloop
  endfacet
  facet normal 0 -1 0
    outer loop
      vertex 0 23 9.2
      vertex 3.14378 23 9.2
      vertex 0 23 11.7
    endloop
  endfacet
  facet normal 0 0 1
    outer loop
      vertex 20 16 9.2
      vertex 20 23 9.2
      vertex 16.8562 23 9.2
    endloop
  endfacet
  facet normal 0 0 1
    outer loop
      vertex 15.8888 20.2155 9.2
      vertex 20 16 9.2
      vertex 16.7165 22.0279 9.2
    endloop
  endfacet
  facet normal 0 0 1
    outer loop
      vertex 16.7165 22.0279 9.2
      vertex 20 16 9.2
      vertex 16.8562 23 9.2
    endloop
  endfacet
  facet normal 0 0 1
    outer loop
      vertex 14.584 18.7098 9.2
      vertex 20 16 9.2
      vertex 15.8888 20.2155 9.2
    endloop
  endfacet
  facet normal 0 0 1
    outer loop
      vertex 12.9079 17.6326 9.2
      vertex 20 16 9.2
      vertex 14.584 18.7098 9.2
    endloop
  endfacet
  facet normal 0 0 1
    outer loop
      vertex 10.9962 17.0712 9.2
      vertex 20 16 9.2
      vertex 12.9079 17.6326 9.2
    endloop
  endfacet
  facet normal 0 0 1
    outer loop
      vertex 9.0038 17.0712 9.2
      vertex 20 16 9.2
      vertex 10.9962 17.0712 9.2
    endloop
  endfacet
  facet normal 0 0 1
    outer loop
      vertex 0 16 9.2
      vertex 20 16 9.2
      vertex 9.0038 17.0712 9.2
    endloop
  endfacet
  facet normal 0 0 1
    outer loop
      vertex 0 16 9.2
      vertex 9.0038 17.0712 9.2
      vertex 7.09209 17.6326 9.2
    endloop
  endfacet
  facet normal 0 0 1
    outer loop
      vertex 0 16 9.2
      vertex 7.09209 17.6326 9.2
      vertex 5.41598 18.7098 9.2
    endloop
  endfacet
  facet normal 0 0 1
    outer loop
      vertex 0 23 9.2
      vertex 5.41598 18.7098 9.2
      vertex 4.11123 20.2155 9.2
    endloop
  endfacet
  facet normal 0 0 1
    outer loop
      vertex 0 23 9.2
      vertex 4.11123 20.2155 9.2
      vertex 3.28355 22.0279 9.2
    endloop
  endfacet
  facet normal 0 0 1
    outer loop
      vertex 0 23 9.2
      vertex 3.28355 22.0279 9.2
      vertex 3.14378 23 9.2
    endloop
  endfacet
  facet normal 0 0 1
    outer loop
      vertex 0 16 9.2
      vertex 5.41598 18.7098 9.2
      vertex 0 23 9.2
    endloop
  endfacet
  facet normal 0 1 0
    outer loop
      vertex 20 16 11.7
      vertex 20 16 9.2
      vertex 0 16 11.7
    endloop
  endfacet
  facet normal 0 1 0
    outer loop
      vertex 0 16 11.7
      vertex 20 16 9.2
      vertex 0 16 9.2
    endloop
  endfacet
  facet normal 0 0 1
    outer loop
      vertex 20 0 11.7
      vertex 20 16 11.7
      vertex 0 16 11.7
    endloop
  endfacet
  facet normal 0 0 1
    outer loop
      vertex 0 0 11.7
      vertex 20 0 11.7
      vertex 0 16 11.7
    endloop
  endfacet
  facet normal 1 0 0
    outer loop
      vertex 20 0 11.7
      vertex 20 0 0
      vertex 20 35 0
    endloop
  endfacet
  facet normal 1 0 0
    outer loop
      vertex 20 30 11.7
      vertex 20 23 11.7
      vertex 20 35 0
    endloop
  endfacet
  facet normal 1 0 0
    outer loop
      vertex 20 35 21.7
      vertex 20 30 11.7
      vertex 20 35 0
    endloop
  endfacet
  facet normal 1 0 0
    outer loop
      vertex 20 16 9.2
      vertex 20 0 11.7
      vertex 20 35 0
    endloop
  endfacet
  facet normal 1 0 0
    outer loop
      vertex 20 23 11.7
      vertex 20 23 9.2
      vertex 20 35 0
    endloop
  endfacet
  facet normal 1 0 0
    outer loop
      vertex 20 23 9.2
      vertex 20 16 9.2
      vertex 20 35 0
    endloop
  endfacet
  facet normal 1 0 0
    outer loop
      vertex 20 16 9.2
      vertex 20 16 11.7
      vertex 20 0 11.7
    endloop
  endfacet
  facet normal 1 0 0
    outer loop
      vertex 20 30 21.7
      vertex 20 30 11.7
      vertex 20 35 21.7
    endloop
  endfacet
  facet normal 0 -1 0
    outer loop
      vertex 20 30 11.7
      vertex 20 30 21.7
      vertex 13.4796 30 21.7
    endloop
  endfacet
  facet normal 0 -1 0
    outer loop
      vertex 13.4796 30 11.7
      vertex 20 30 11.7
      vertex 13.4796 30 21.7
    endloop
  endfacet
  facet normal -0.540641 -0.841254 0
    outer loop
      vertex 14.584 29.2902 3.7
      vertex 14.584 29.2902 11.7
      vertex 13.4796 30 11.7
    endloop
  endfacet
  facet normal -0.540641 -0.841254 0
    outer loop
      vertex 12.9079 30.3674 3.7
      vertex 14.584 29.2902 3.7
      vertex 13.4796 30 11.7
    endloop
  endfacet
  facet normal -0.540641 -0.841254 0
    outer loop
      vertex 13.4796 30 21.7
      vertex 12.9079 30.3674 21.7
      vertex 13.4796 30 11.7
    endloop
  endfacet
  facet normal -0.540641 -0.841254 0
    outer loop
      vertex 12.9079 30.3674 21.7
      vertex 12.9079 30.3674 3.7
      vertex 13.4796 30 11.7
    endloop
  endfacet
  facet normal -0.281733 -0.959493 0
    outer loop
      vertex 12.9079 30.3674 3.7
      vertex 12.9079 30.3674 21.7
      vertex 10.9962 30.9287 21.7
    endloop
  endfacet
  facet normal -0.281733 -0.959493 0
    outer loop
      vertex 10.9962 30.9287 3.7
      vertex 12.9079 30.3674 3.7
      vertex 10.9962 30.9287 21.7
    endloop
  endfacet
  facet normal 0 -1 0
    outer loop
      vertex 10.9962 30.9287 3.7
      vertex 10.9962 30.9287 21.7
      vertex 9.0038 30.9287 21.7
    endloop
  endfacet
  facet normal 0 -1 0
    outer loop
      vertex 9.0038 30.9287 3.7
      vertex 10.9962 30.9287 3.7
      vertex 9.0038 30.9287 21.7
    endloop
  endfacet
  facet normal 0.281733 -0.959493 0
    outer loop
      vertex 9.0038 30.9287 3.7
      vertex 9.0038 30.9287 21.7
      vertex 7.09209 30.3674 21.7
    endloop
  endfacet
  facet normal 0.281733 -0.959493 0
    outer loop
      vertex 7.09209 30.3674 3.7
      vertex 9.0038 30.9287 3.7
      vertex 7.09209 30.3674 21.7
    endloop
  endfacet
  facet normal 0.540641 -0.841254 0
    outer loop
      vertex 7.09209 30.3674 3.7
      vertex 7.09209 30.3674 21.7
      vertex 6.52037 30 21.7
    endloop
  endfacet
  facet normal 0.540641 -0.841254 0
    outer loop
      vertex 5.41598 29.2902 11.7
      vertex 7.09209 30.3674 3.7
      vertex 6.52037 30 11.7
    endloop
  endfacet
  facet normal 0.540641 -0.841254 0
    outer loop
      vertex 6.52037 30 11.7
      vertex 7.09209 30.3674 3.7
      vertex 6.52037 30 21.7
    endloop
  endfacet
  facet normal 0.540641 -0.841254 0
    outer loop
      vertex 5.41598 29.2902 3.7
      vertex 7.09209 30.3674 3.7
      vertex 5.41598 29.2902 11.7
    endloop
  endfacet
  facet normal 0.989821 0.142315 0
    outer loop
      vertex 3 24 11.7
      vertex 3.14378 23 11.7
      vertex 3.14378 23 9.2
    endloop
  endfacet
  facet normal 0.989821 0.142315 0
    outer loop
      vertex 3.28355 22.0279 3.7
      vertex 3 24 11.7
      vertex 3.14378 23 9.2
    endloop
  endfacet
  facet normal 0.989821 0.142315 0
    outer loop
      vertex 3.28355 22.0279 9.2
      vertex 3.28355 22.0279 3.7
      vertex 3.14378 23 9.2
    endloop
  endfacet
  facet normal 0.989821 0.142315 0
    outer loop
      vertex 3.28355 22.0279 3.7
      vertex 3 24 3.7
      vertex 3 24 11.7
    endloop
  endfacet
  facet normal 0.755749 -0.654861 0
    outer loop
      vertex 5.41598 29.2902 3.7
      vertex 5.41598 29.2902 11.7
      vertex 4.11123 27.7845 11.7
    endloop
  endfacet
  facet normal 0.755749 -0.654861 0
    outer loop
      vertex 4.11123 27.7845 3.7
      vertex 5.41598 29.2902 3.7
      vertex 4.11123 27.7845 11.7
    endloop
  endfacet
  facet normal 0.909632 -0.415415 0
    outer loop
      vertex 4.11123 27.7845 3.7
      vertex 4.11123 27.7845 11.7
      vertex 3.28355 25.9721 11.7
    endloop
  endfacet
  facet normal 0.909632 -0.415415 0
    outer loop
      vertex 3.28355 25.9721 3.7
      vertex 4.11123 27.7845 3.7
      vertex 3.28355 25.9721 11.7
    endloop
  endfacet
  facet normal 0.989821 -0.142315 0
    outer loop
      vertex 3.28355 25.9721 3.7
      vertex 3.28355 25.9721 11.7
      vertex 3 24 11.7
    endloop
  endfacet
  facet normal 0.989821 -0.142315 0
    outer loop
      vertex 3 24 3.7
      vertex 3.28355 25.9721 3.7
      vertex 3 24 11.7
    endloop
  endfacet
  facet normal 0.909632 0.415415 0
    outer loop
      vertex 3.28355 22.0279 9.2
      vertex 4.11123 20.2155 9.2
      vertex 4.11123 20.2155 3.7
    endloop
  endfacet
  facet normal 0.909632 0.415415 0
    outer loop
      vertex 3.28355 22.0279 3.7
      vertex 3.28355 22.0279 9.2
      vertex 4.11123 20.2155 3.7
    endloop
  endfacet
  facet normal 0.755749 0.654861 0
    outer loop
      vertex 4.11123 20.2155 9.2
      vertex 5.41598 18.7098 9.2
      vertex 5.41598 18.7098 3.7
    endloop
  endfacet
  facet normal 0.755749 0.654861 0
    outer loop
      vertex 4.11123 20.2155 3.7
      vertex 4.11123 20.2155 9.2
      vertex 5.41598 18.7098 3.7
    endloop
  endfacet
  facet normal 0.540641 0.841254 0
    outer loop
      vertex 7.09209 17.6326 9.2
      vertex 7.09209 17.6326 3.7
      vertex 5.41598 18.7098 9.2
    endloop
  endfacet
  facet normal 0.540641 0.841254 0
    outer loop
      vertex 5.41598 18.7098 9.2
      vertex 7.09209 17.6326 3.7
      vertex 5.41598 18.7098 3.7
    endloop
  endfacet
  facet normal 0.281733 0.959493 0
    outer loop
      vertex 9.0038 17.0712 9.2
      vertex 9.0038 17.0712 3.7
      vertex 7.09209 17.6326 9.2
    endloop
  endfacet
  facet normal 0.281733 0.959493 0
    outer loop
      vertex 7.09209 17.6326 9.2
      vertex 9.0038 17.0712 3.7
      vertex 7.09209 17.6326 3.7
    endloop
  endfacet
  facet normal 0 1 0
    outer loop
      vertex 10.9962 17.0712 9.2
      vertex 10.9962 17.0712 3.7
      vertex 9.0038 17.0712 9.2
    endloop
  endfacet
  facet normal 0 1 0
    outer loop
      vertex 9.0038 17.0712 9.2
      vertex 10.9962 17.0712 3.7
      vertex 9.0038 17.0712 3.7
    endloop
  endfacet
  facet normal -0.281733 0.959493 0
    outer loop
      vertex 12.9079 17.6326 9.2
      vertex 12.9079 17.6326 3.7
      vertex 10.9962 17.0712 9.2
    endloop
  endfacet
  facet normal -0.281733 0.959493 0
    outer loop
      vertex 10.9962 17.0712 9.2
      vertex 12.9079 17.6326 3.7
      vertex 10.9962 17.0712 3.7
    endloop
  endfacet
  facet normal -0.540641 0.841254 0
    outer loop
      vertex 14.584 18.7098 9.2
      vertex 14.584 18.7098 3.7
      vertex 12.9079 17.6326 9.2
    endloop
  endfacet
  facet normal -0.540641 0.841254 0
    outer loop
      vertex 12.9079 17.6326 9.2
      vertex 14.584 18.7098 3.7
      vertex 12.9079 17.6326 3.7
    endloop
  endfacet
  facet normal -0.755749 0.654861 0
    outer loop
      vertex 15.8888 20.2155 9.2
      vertex 15.8888 20.2155 3.7
      vertex 14.584 18.7098 9.2
    endloop
  endfacet
  facet normal -0.755749 0.654861 0
    outer loop
      vertex 14.584 18.7098 9.2
      vertex 15.8888 20.2155 3.7
      vertex 14.584 18.7098 3.7
    endloop
  endfacet
  facet normal -0.909632 0.415415 0
    outer loop
      vertex 16.7165 22.0279 9.2
      vertex 16.7165 22.0279 3.7
      vertex 15.8888 20.2155 9.2
    endloop
  endfacet
  facet normal -0.909632 0.415415 0
    outer loop
      vertex 15.8888 20.2155 9.2
      vertex 16.7165 22.0279 3.7
      vertex 15.8888 20.2155 3.7
    endloop
  endfacet
  facet normal -0.989821 0.142315 0
    outer loop
      vertex 16.8562 23 9.2
      vertex 16.8562 23 11.7
      vertex 17 24 11.7
    endloop
  endfacet
  facet normal -0.989821 0.142315 0
    outer loop
      vertex 16.8562 23 9.2
      vertex 17 24 11.7
      vertex 17 24 3.7
    endloop
  endfacet
  facet normal -0.989821 0.142315 0
    outer loop
      vertex 16.8562 23 9.2
      vertex 17 24 3.7
      vertex 16.7165 22.0279 9.2
    endloop
  endfacet
  facet normal -0.989821 0.142315 0
    outer loop
      vertex 17 24 3.7
      vertex 16.7165 22.0279 3.7
      vertex 16.7165 22.0279 9.2
    endloop
  endfacet
  facet normal 0 -1 0
    outer loop
      vertex 20 23 9.2
      vertex 20 23 11.7
      vertex 16.8562 23 11.7
    endloop
  endfacet
  facet normal 0 -1 0
    outer loop
      vertex 16.8562 23 9.2
      vertex 20 23 9.2
      vertex 16.8562 23 11.7
    endloop
  endfacet
  facet normal 0 0 1
    outer loop
      vertex 20 23 11.7
      vertex 15.8888 27.7845 11.7
      vertex 16.7165 25.9721 11.7
    endloop
  endfacet
  facet normal 0 0 1
    outer loop
      vertex 17 24 11.7
      vertex 20 23 11.7
      vertex 16.7165 25.9721 11.7
    endloop
  endfacet
  facet normal 0 0 1
    outer loop
      vertex 14.584 29.2902 11.7
      vertex 15.8888 27.7845 11.7
      vertex 20 30 11.7
    endloop
  endfacet
  facet normal 0 0 1
    outer loop
      vertex 16.8562 23 11.7
      vertex 20 23 11.7
      vertex 17 24 11.7
    endloop
  endfacet
  facet normal 0 0 1
    outer loop
      vertex 20 23 11.7
      vertex 20 30 11.7
      vertex 15.8888 27.7845 11.7
    endloop
  endfacet
  facet normal 0 0 1
    outer loop
      vertex 14.584 29.2902 11.7
      vertex 20 30 11.7
      vertex 13.4796 30 11.7
    endloop
  endfacet
  facet normal 0 0 1
    outer loop
      vertex 3.28355 22.0279 3.7
      vertex 4.11123 20.2155 3.7
      vertex 5.41598 18.7098 3.7
    endloop
  endfacet
  facet normal 0 0 1
    outer loop
      vertex 9.0038 17.0712 3.7
      vertex 3.28355 22.0279 3.7
      vertex 7.09209 17.6326 3.7
    endloop
  endfacet
  facet normal 0 0 1
    outer loop
      vertex 7.09209 17.6326 3.7
      vertex 3.28355 22.0279 3.7
      vertex 5.41598 18.7098 3.7
    endloop
  endfacet
  facet normal 0 0 1
    outer loop
      vertex 10.9962 17.0712 3.7
      vertex 3.28355 22.0279 3.7
      vertex 9.0038 17.0712 3.7
    endloop
  endfacet
  facet normal 0 0 1
    outer loop
      vertex 12.9079 17.6326 3.7
      vertex 3.28355 22.0279 3.7
      vertex 10.9962 17.0712 3.7
    endloop
  endfacet
  facet normal 0 0 1
    outer loop
      vertex 14.584 18.7098 3.7
      vertex 3.28355 22.0279 3.7
      vertex 12.9079 17.6326 3.7
    endloop
  endfacet
  facet normal 0 0 1
    outer loop
      vertex 15.8888 20.2155 3.7
      vertex 3.28355 22.0279 3.7
      vertex 14.584 18.7098 3.7
    endloop
  endfacet
  facet normal 0 0 1
    outer loop
      vertex 16.7165 22.0279 3.7
      vertex 3.28355 22.0279 3.7
      vertex 15.8888 20.2155 3.7
    endloop
  endfacet
  facet normal 0 0 1
    outer loop
      vertex 17 24 3.7
      vertex 3.28355 22.0279 3.7
      vertex 16.7165 22.0279 3.7
    endloop
  endfacet
  facet normal 0 0 1
    outer loop
      vertex 16.7165 25.9721 3.7
      vertex 3.28355 22.0279 3.7
      vertex 17 24 3.7
    endloop
  endfacet
  facet normal 0 0 1
    outer loop
      vertex 15.8888 27.7845 3.7
      vertex 3.28355 22.0279 3.7
      vertex 16.7165 25.9721 3.7
    endloop
  endfacet
  facet normal 0 0 1
    outer loop
      vertex 14.584 29.2902 3.7
      vertex 3.28355 22.0279 3.7
      vertex 15.8888 27.7845 3.7
    endloop
  endfacet
  facet normal 0 0 1
    outer loop
      vertex 12.9079 30.3674 3.7
      vertex 3.28355 22.0279 3.7
      vertex 14.584 29.2902 3.7
    endloop
  endfacet
  facet normal 0 0 1
    outer loop
      vertex 10.9962 30.9287 3.7
      vertex 3.28355 22.0279 3.7
      vertex 12.9079 30.3674 3.7
    endloop
  endfacet
  facet normal 0 0 1
    outer loop
      vertex 9.0038 30.9287 3.7
      vertex 3.28355 22.0279 3.7
      vertex 10.9962 30.9287 3.7
    endloop
  endfacet
  facet normal 0 0 1
    outer loop
      vertex 7.09209 30.3674 3.7
      vertex 3.28355 22.0279 3.7
      vertex 9.0038 30.9287 3.7
    endloop
  endfacet
  facet normal 0 0 1
    outer loop
      vertex 5.41598 29.2902 3.7
      vertex 3.28355 22.0279 3.7
      vertex 7.09209 30.3674 3.7
    endloop
  endfacet
  facet normal 0 0 1
    outer loop
      vertex 4.11123 27.7845 3.7
      vertex 3.28355 22.0279 3.7
      vertex 5.41598 29.2902 3.7
    endloop
  endfacet
  facet normal 0 0 1
    outer loop
      vertex 3.28355 25.9721 3.7
      vertex 3.28355 22.0279 3.7
      vertex 4.11123 27.7845 3.7
    endloop
  endfacet
  facet normal 0 0 1
    outer loop
      vertex 3 24 3.7
      vertex 3.28355 22.0279 3.7
      vertex 3.28355 25.9721 3.7
    endloop
  endfacet
  facet normal -0.755749 -0.654861 0
    outer loop
      vertex 15.8888 27.7845 11.7
      vertex 14.584 29.2902 11.7
      vertex 15.8888 27.7845 3.7
    endloop
  endfacet
  facet normal -0.755749 -0.654861 0
    outer loop
      vertex 15.8888 27.7845 3.7
      vertex 14.584 29.2902 11.7
      vertex 14.584 29.2902 3.7
    endloop
  endfacet
  facet normal -0.989821 -0.142315 0
    outer loop
      vertex 17 24 11.7
      vertex 16.7165 25.9721 11.7
      vertex 17 24 3.7
    endloop
  endfacet
  facet normal -0.989821 -0.142315 0
    outer loop
      vertex 17 24 3.7
      vertex 16.7165 25.9721 11.7
      vertex 16.7165 25.9721 3.7
    endloop
  endfacet
  facet normal -0.909632 -0.415415 0
    outer loop
      vertex 16.7165 25.9721 11.7
      vertex 15.8888 27.7845 11.7
      vertex 16.7165 25.9721 3.7
    endloop
  endfacet
  facet normal -0.909632 -0.415415 0
    outer loop
      vertex 16.7165 25.9721 3.7
      vertex 15.8888 27.7845 11.7
      vertex 15.8888 27.7845 3.7
    endloop
  endfacet
endsolid OpenSCAD_Model
