solid OpenSCAD_Model
  facet normal -1 0 0
    outer loop
      vertex 0 0 0
      vertex 0 0 10
      vertex 0 35 0
    endloop
  endfacet
  facet normal -1 0 0
    outer loop
      vertex 0 16 7.5
      vertex 0 0 10
      vertex 0 16 10
    endloop
  endfacet
  facet normal -1 0 0
    outer loop
      vertex 0 35 0
      vertex 0 0 10
      vertex 0 16 7.5
    endloop
  endfacet
  facet normal -1 0 0
    outer loop
      vertex 0 35 0
      vertex 0 23 7.5
      vertex 0 23 10
    endloop
  endfacet
  facet normal -1 0 0
    outer loop
      vertex 0 35 0
      vertex 0 23 10
      vertex 0 30 10
    endloop
  endfacet
  facet normal -1 0 0
    outer loop
      vertex 0 35 0
      vertex 0 30 10
      vertex 0 30 20
    endloop
  endfacet
  facet normal -1 0 0
    outer loop
      vertex 0 35 0
      vertex 0 30 20
      vertex 0 35 20
    endloop
  endfacet
  facet normal -1 0 0
    outer loop
      vertex 0 23 7.5
      vertex 0 35 0
      vertex 0 16 7.5
    endloop
  endfacet
  facet normal 0 -1 0
    outer loop
      vertex 0 0 10
      vertex 0 0 0
      vertex 20 0 0
    endloop
  endfacet
  facet normal 0 -1 0
    outer loop
      vertex 20 0 10
      vertex 0 0 10
      vertex 20 0 0
    endloop
  endfacet
  facet normal 0 0 -1
    outer loop
      vertex 0 0 0
      vertex 0 35 0
      vertex 20 0 0
    endloop
  endfacet
  facet normal 0 0 -1
    outer loop
      vertex 20 0 0
      vertex 0 35 0
      vertex 20 35 0
    endloop
  endfacet
  facet normal 0 1 0
    outer loop
      vertex 0 35 0
      vertex 0 35 20
      vertex 20 35 0
    endloop
  endfacet
  facet normal 0 1 0
    outer loop
      vertex 20 35 0
      vertex 0 35 20
      vertex 20 35 20
    endloop
  endfacet
  facet normal 0 0 1
    outer loop
      vertex 0 35 20
      vertex 0 30 20
      vertex 6.52037 30 20
    endloop
  endfacet
  facet normal 0 0 1
    outer loop
      vertex 9.0038 30.9287 20
      vertex 0 35 20
      vertex 7.09209 30.3674 20
    endloop
  endfacet
  facet normal 0 0 1
    outer loop
      vertex 7.09209 30.3674 20
      vertex 0 35 20
      vertex 6.52037 30 20
    endloop
  endfacet
  facet normal 0 0 1
    outer loop
      vertex 10.9962 30.9287 20
      vertex 0 35 20
      vertex 9.0038 30.9287 20
    endloop
  endfacet
  facet normal 0 0 1
    outer loop
      vertex 12.9079 30.3674 20
      vertex 0 35 20
      vertex 10.9962 30.9287 20
    endloop
  endfacet
  facet normal 0 0 1
    outer loop
      vertex 20 30 20
      vertex 0 35 20
      vertex 12.9079 30.3674 20
    endloop
  endfacet
  facet normal 0 0 1
    outer loop
      vertex 20 30 20
      vertex 12.9079 30.3674 20
      vertex 13.4796 30 20
    endloop
  endfacet
  facet normal 0 0 1
    outer loop
      vertex 20 35 20
      vertex 0 35 20
      vertex 20 30 20
    endloop
  endfacet
  facet normal 0 -1 0
    outer loop
      vertex 6.52037 30 10
      vertex 6.52037 30 20
      vertex 0 30 20
    endloop
  endfacet
  facet normal 0 -1 0
    outer loop
      vertex 0 30 10
      vertex 6.52037 30 10
      vertex 0 30 20
    endloop
  endfacet
  facet normal 0 0 1
    outer loop
      vertex 0 30 10
      vertex 3 24 10
      vertex 3.28355 25.9721 10
    endloop
  endfacet
  facet normal 0 0 1
    outer loop
      vertex 5.41598 29.2902 10
      vertex 0 30 10
      vertex 4.11123 27.7845 10
    endloop
  endfacet
  facet normal 0 0 1
    outer loop
      vertex 4.11123 27.7845 10
      vertex 0 30 10
      vertex 3.28355 25.9721 10
    endloop
  endfacet
  facet normal 0 0 1
    outer loop
      vertex 3.14378 23 10
      vertex 3 24 10
      vertex 0 30 10
    endloop
  endfacet
  facet normal 0 0 1
    outer loop
      vertex 6.52037 30 10
      vertex 0 30 10
      vertex 5.41598 29.2902 10
    endloop
  endfacet
  facet normal 0 0 1
    outer loop
      vertex 0 30 10
      vertex 0 23 10
      vertex 3.14378 23 10
    endloop
  endfacet
  facet normal 0 -1 0
    outer loop
      vertex 3.14378 23 7.5
      vertex 3.14378 23 10
      vertex 0 23 10
    endloop
  endfacet
  facet normal 0 -1 0
    outer loop
      vertex 0 23 7.5
      vertex 3.14378 23 7.5
      vertex 0 23 10
    endloop
  endfacet
  facet normal 0 0 1
    outer loop
      vertex 20 16 7.5
      vertex 20 23 7.5
      vertex 16.8562 23 7.5
    endloop
  endfacet
  facet normal 0 0 1
    outer loop
      vertex 15.8888 20.2155 7.5
      vertex 20 16 7.5
      vertex 16.7165 22.0279 7.5
    endloop
  endfacet
  facet normal 0 0 1
    outer loop
      vertex 16.7165 22.0279 7.5
      vertex 20 16 7.5
      vertex 16.8562 23 7.5
    endloop
  endfacet
  facet normal 0 0 1
    outer loop
      vertex 14.584 18.7098 7.5
      vertex 20 16 7.5
      vertex 15.8888 20.2155 7.5
    endloop
  endfacet
  facet normal 0 0 1
    outer loop
      vertex 12.9079 17.6326 7.5
      vertex 20 16 7.5
      vertex 14.584 18.7098 7.5
    endloop
  endfacet
  facet normal 0 0 1
    outer loop
      vertex 10.9962 17.0712 7.5
      vertex 20 16 7.5
      vertex 12.9079 17.6326 7.5
    endloop
  endfacet
  facet normal 0 0 1
    outer loop
      vertex 9.0038 17.0712 7.5
      vertex 20 16 7.5
      vertex 10.9962 17.0712 7.5
    endloop
  endfacet
  facet normal 0 0 1
    outer loop
      vertex 0 16 7.5
      vertex 20 16 7.5
      vertex 9.0038 17.0712 7.5
    endloop
  endfacet
  facet normal 0 0 1
    outer loop
      vertex 0 16 7.5
      vertex 9.0038 17.0712 7.5
      vertex 7.09209 17.6326 7.5
    endloop
  endfacet
  facet normal 0 0 1
    outer loop
      vertex 0 16 7.5
      vertex 7.09209 17.6326 7.5
      vertex 5.41598 18.7098 7.5
    endloop
  endfacet
  facet normal 0 0 1
    outer loop
      vertex 0 23 7.5
      vertex 5.41598 18.7098 7.5
      vertex 4.11123 20.2155 7.5
    endloop
  endfacet
  facet normal 0 0 1
    outer loop
      vertex 0 23 7.5
      vertex 4.11123 20.2155 7.5
      vertex 3.28355 22.0279 7.5
    endloop
  endfacet
  facet normal 0 0 1
    outer loop
      vertex 0 23 7.5
      vertex 3.28355 22.0279 7.5
      vertex 3.14378 23 7.5
    endloop
  endfacet
  facet normal 0 0 1
    outer loop
      vertex 0 16 7.5
      vertex 5.41598 18.7098 7.5
      vertex 0 23 7.5
    endloop
  endfacet
  facet normal 0 1 0
    outer loop
      vertex 20 16 10
      vertex 20 16 7.5
      vertex 0 16 10
    endloop
  endfacet
  facet normal 0 1 0
    outer loop
      vertex 0 16 10
      vertex 20 16 7.5
      vertex 0 16 7.5
    endloop
  endfacet
  facet normal 0 0 1
    outer loop
      vertex 20 0 10
      vertex 20 16 10
      vertex 0 16 10
    endloop
  endfacet
  facet normal 0 0 1
    outer loop
      vertex 0 0 10
      vertex 20 0 10
      vertex 0 16 10
    endloop
  endfacet
  facet normal 1 0 0
    outer loop
      vertex 20 0 10
      vertex 20 0 0
      vertex 20 35 0
    endloop
  endfacet
  facet normal 1 0 0
    outer loop
      vertex 20 30 10
      vertex 20 23 10
      vertex 20 35 0
    endloop
  endfacet
  facet normal 1 0 0
    outer loop
      vertex 20 35 20
      vertex 20 30 10
      vertex 20 35 0
    endloop
  endfacet
  facet normal 1 0 0
    outer loop
      vertex 20 16 7.5
      vertex 20 0 10
      vertex 20 35 0
    endloop
  endfacet
  facet normal 1 0 0
    outer loop
      vertex 20 23 10
      vertex 20 23 7.5
      vertex 20 35 0
    endloop
  endfacet
  facet normal 1 0 0
    outer loop
      vertex 20 23 7.5
      vertex 20 16 7.5
      vertex 20 35 0
    endloop
  endfacet
  facet normal 1 0 0
    outer loop
      vertex 20 16 7.5
      vertex 20 16 10
      vertex 20 0 10
    endloop
  endfacet
  facet normal 1 0 0
    outer loop
      vertex 20 30 20
      vertex 20 30 10
      vertex 20 35 20
    endloop
  endfacet
  facet normal 0 -1 0
    outer loop
      vertex 20 30 10
      vertex 20 30 20
      vertex 13.4796 30 20
    endloop
  endfacet
  facet normal 0 -1 0
    outer loop
      vertex 13.4796 30 10
      vertex 20 30 10
      vertex 13.4796 30 20
    endloop
  endfacet
  facet normal -0.540641 -0.841254 0
    outer loop
      vertex 14.584 29.2902 2
      vertex 14.584 29.2902 10
      vertex 13.4796 30 10
    endloop
  endfacet
  facet normal -0.540641 -0.841254 0
    outer loop
      vertex 12.9079 30.3674 2
      vertex 14.584 29.2902 2
      vertex 13.4796 30 10
    endloop
  endfacet
  facet normal -0.540641 -0.841254 0
    outer loop
      vertex 13.4796 30 20
      vertex 12.9079 30.3674 20
      vertex 13.4796 30 10
    endloop
  endfacet
  facet normal -0.540641 -0.841254 0
    outer loop
      vertex 12.9079 30.3674 20
      vertex 12.9079 30.3674 2
      vertex 13.4796 30 10
    endloop
  endfacet
  facet normal -0.281733 -0.959493 0
    outer loop
      vertex 12.9079 30.3674 2
      vertex 12.9079 30.3674 20
      vertex 10.9962 30.9287 20
    endloop
  endfacet
  facet normal -0.281733 -0.959493 0
    outer loop
      vertex 10.9962 30.9287 2
      vertex 12.9079 30.3674 2
      vertex 10.9962 30.9287 20
    endloop
  endfacet
  facet normal 0 -1 0
    outer loop
      vertex 10.9962 30.9287 2
      vertex 10.9962 30.9287 20
      vertex 9.0038 30.9287 20
    endloop
  endfacet
  facet normal 0 -1 0
    outer loop
      vertex 9.0038 30.9287 2
      vertex 10.9962 30.9287 2
      vertex 9.0038 30.9287 20
    endloop
  endfacet
  facet normal 0.281733 -0.959493 0
    outer loop
      vertex 9.0038 30.9287 2
      vertex 9.0038 30.9287 20
      vertex 7.09209 30.3674 20
    endloop
  endfacet
  facet normal 0.281733 -0.959493 0
    outer loop
      vertex 7.09209 30.3674 2
      vertex 9.0038 30.9287 2
      vertex 7.09209 30.3674 20
    endloop
  endfacet
  facet normal 0.540641 -0.841254 0
    outer loop
      vertex 7.09209 30.3674 2
      vertex 7.09209 30.3674 20
      vertex 6.52037 30 20
    endloop
  endfacet
  facet normal 0.540641 -0.841254 0
    outer loop
      vertex 5.41598 29.2902 10
      vertex 7.09209 30.3674 2
      vertex 6.52037 30 10
    endloop
  endfacet
  facet normal 0.540641 -0.841254 0
    outer loop
      vertex 6.52037 30 10
      vertex 7.09209 30.3674 2
      vertex 6.52037 30 20
    endloop
  endfacet
  facet normal 0.540641 -0.841254 0
    outer loop
      vertex 5.41598 29.2902 2
      vertex 7.09209 30.3674 2
      vertex 5.41598 29.2902 10
    endloop
  endfacet
  facet normal 0.989821 0.142315 0
    outer loop
      vertex 3 24 10
      vertex 3.14378 23 10
      vertex 3.14378 23 7.5
    endloop
  endfacet
  facet normal 0.989821 0.142315 0
    outer loop
      vertex 3.28355 22.0279 2
      vertex 3 24 10
      vertex 3.14378 23 7.5
    endloop
  endfacet
  facet normal 0.989821 0.142315 0
    outer loop
      vertex 3.28355 22.0279 7.5
      vertex 3.28355 22.0279 2
      vertex 3.14378 23 7.5
    endloop
  endfacet
  facet normal 0.989821 0.142315 0
    outer loop
      vertex 3.28355 22.0279 2
      vertex 3 24 2
      vertex 3 24 10
    endloop
  endfacet
  facet normal 0.755749 -0.654861 0
    outer loop
      vertex 5.41598 29.2902 2
      vertex 5.41598 29.2902 10
      vertex 4.11123 27.7845 10
    endloop
  endfacet
  facet normal 0.755749 -0.654861 0
    outer loop
      vertex 4.11123 27.7845 2
      vertex 5.41598 29.2902 2
      vertex 4.11123 27.7845 10
    endloop
  endfacet
  facet normal 0.909632 -0.415415 0
    outer loop
      vertex 4.11123 27.7845 2
      vertex 4.11123 27.7845 10
      vertex 3.28355 25.9721 10
    endloop
  endfacet
  facet normal 0.909632 -0.415415 0
    outer loop
      vertex 3.28355 25.9721 2
      vertex 4.11123 27.7845 2
      vertex 3.28355 25.9721 10
    endloop
  endfacet
  facet normal 0.989821 -0.142315 0
    outer loop
      vertex 3.28355 25.9721 2
      vertex 3.28355 25.9721 10
      vertex 3 24 10
    endloop
  endfacet
  facet normal 0.989821 -0.142315 0
    outer loop
      vertex 3 24 2
      vertex 3.28355 25.9721 2
      vertex 3 24 10
    endloop
  endfacet
  facet normal 0.909632 0.415415 0
    outer loop
      vertex 3.28355 22.0279 7.5
      vertex 4.11123 20.2155 7.5
      vertex 4.11123 20.2155 2
    endloop
  endfacet
  facet normal 0.909632 0.415415 0
    outer loop
      vertex 3.28355 22.0279 2
      vertex 3.28355 22.0279 7.5
      vertex 4.11123 20.2155 2
    endloop
  endfacet
  facet normal 0.755749 0.654861 0
    outer loop
      vertex 4.11123 20.2155 7.5
      vertex 5.41598 18.7098 7.5
      vertex 5.41598 18.7098 2
    endloop
  endfacet
  facet normal 0.755749 0.654861 0
    outer loop
      vertex 4.11123 20.2155 2
      vertex 4.11123 20.2155 7.5
      vertex 5.41598 18.7098 2
    endloop
  endfacet
  facet normal 0.540641 0.841254 0
    outer loop
      vertex 7.09209 17.6326 7.5
      vertex 7.09209 17.6326 2
      vertex 5.41598 18.7098 7.5
    endloop
  endfacet
  facet normal 0.540641 0.841254 0
    outer loop
      vertex 5.41598 18.7098 7.5
      vertex 7.09209 17.6326 2
      vertex 5.41598 18.7098 2
    endloop
  endfacet
  facet normal 0.281733 0.959493 0
    outer loop
      vertex 9.0038 17.0712 7.5
      vertex 9.0038 17.0712 2
      vertex 7.09209 17.6326 7.5
    endloop
  endfacet
  facet normal 0.281733 0.959493 0
    outer loop
      vertex 7.09209 17.6326 7.5
      vertex 9.0038 17.0712 2
      vertex 7.09209 17.6326 2
    endloop
  endfacet
  facet normal 0 1 0
    outer loop
      vertex 10.9962 17.0712 7.5
      vertex 10.9962 17.0712 2
      vertex 9.0038 17.0712 7.5
    endloop
  endfacet
  facet normal 0 1 0
    outer loop
      vertex 9.0038 17.0712 7.5
      vertex 10.9962 17.0712 2
      vertex 9.0038 17.0712 2
    endloop
  endfacet
  facet normal -0.281733 0.959493 0
    outer loop
      vertex 12.9079 17.6326 7.5
      vertex 12.9079 17.6326 2
      vertex 10.9962 17.0712 7.5
    endloop
  endfacet
  facet normal -0.281733 0.959493 0
    outer loop
      vertex 10.9962 17.0712 7.5
      vertex 12.9079 17.6326 2
      vertex 10.9962 17.0712 2
    endloop
  endfacet
  facet normal -0.540641 0.841254 0
    outer loop
      vertex 14.584 18.7098 7.5
      vertex 14.584 18.7098 2
      vertex 12.9079 17.6326 7.5
    endloop
  endfacet
  facet normal -0.540641 0.841254 0
    outer loop
      vertex 12.9079 17.6326 7.5
      vertex 14.584 18.7098 2
      vertex 12.9079 17.6326 2
    endloop
  endfacet
  facet normal -0.755749 0.654861 0
    outer loop
      vertex 15.8888 20.2155 7.5
      vertex 15.8888 20.2155 2
      vertex 14.584 18.7098 7.5
    endloop
  endfacet
  facet normal -0.755749 0.654861 0
    outer loop
      vertex 14.584 18.7098 7.5
      vertex 15.8888 20.2155 2
      vertex 14.584 18.7098 2
    endloop
  endfacet
  facet normal -0.909632 0.415415 0
    outer loop
      vertex 16.7165 22.0279 7.5
      vertex 16.7165 22.0279 2
      vertex 15.8888 20.2155 7.5
    endloop
  endfacet
  facet normal -0.909632 0.415415 0
    outer loop
      vertex 15.8888 20.2155 7.5
      vertex 16.7165 22.0279 2
      vertex 15.8888 20.2155 2
    endloop
  endfacet
  facet normal -0.989821 0.142315 0
    outer loop
      vertex 16.8562 23 7.5
      vertex 16.8562 23 10
      vertex 17 24 10
    endloop
  endfacet
  facet normal -0.989821 0.142315 0
    outer loop
      vertex 16.8562 23 7.5
      vertex 17 24 10
      vertex 17 24 2
    endloop
  endfacet
  facet normal -0.989821 0.142315 0
    outer loop
      vertex 16.8562 23 7.5
      vertex 17 24 2
      vertex 16.7165 22.0279 7.5
    endloop
  endfacet
  facet normal -0.989821 0.142315 0
    outer loop
      vertex 17 24 2
      vertex 16.7165 22.0279 2
      vertex 16.7165 22.0279 7.5
    endloop
  endfacet
  facet normal 0 -1 0
    outer loop
      vertex 20 23 7.5
      vertex 20 23 10
      vertex 16.8562 23 10
    endloop
  endfacet
  facet normal 0 -1 0
    outer loop
      vertex 16.8562 23 7.5
      vertex 20 23 7.5
      vertex 16.8562 23 10
    endloop
  endfacet
  facet normal 0 0 1
    outer loop
      vertex 20 23 10
      vertex 15.8888 27.7845 10
      vertex 16.7165 25.9721 10
    endloop
  endfacet
  facet normal 0 0 1
    outer loop
      vertex 17 24 10
      vertex 20 23 10
      vertex 16.7165 25.9721 10
    endloop
  endfacet
  facet normal 0 0 1
    outer loop
      vertex 14.584 29.2902 10
      vertex 15.8888 27.7845 10
      vertex 20 30 10
    endloop
  endfacet
  facet normal 0 0 1
    outer loop
      vertex 16.8562 23 10
      vertex 20 23 10
      vertex 17 24 10
    endloop
  endfacet
  facet normal 0 0 1
    outer loop
      vertex 20 23 10
      vertex 20 30 10
      vertex 15.8888 27.7845 10
    endloop
  endfacet
  facet normal 0 0 1
    outer loop
      vertex 14.584 29.2902 10
      vertex 20 30 10
      vertex 13.4796 30 10
    endloop
  endfacet
  facet normal 0 0 1
    outer loop
      vertex 3.28355 22.0279 2
      vertex 4.11123 20.2155 2
      vertex 5.41598 18.7098 2
    endloop
  endfacet
  facet normal 0 0 1
    outer loop
      vertex 9.0038 17.0712 2
      vertex 3.28355 22.0279 2
      vertex 7.09209 17.6326 2
    endloop
  endfacet
  facet normal 0 0 1
    outer loop
      vertex 7.09209 17.6326 2
      vertex 3.28355 22.0279 2
      vertex 5.41598 18.7098 2
    endloop
  endfacet
  facet normal 0 0 1
    outer loop
      vertex 10.9962 17.0712 2
      vertex 3.28355 22.0279 2
      vertex 9.0038 17.0712 2
    endloop
  endfacet
  facet normal 0 0 1
    outer loop
      vertex 12.9079 17.6326 2
      vertex 3.28355 22.0279 2
      vertex 10.9962 17.0712 2
    endloop
  endfacet
  facet normal 0 0 1
    outer loop
      vertex 14.584 18.7098 2
      vertex 3.28355 22.0279 2
      vertex 12.9079 17.6326 2
    endloop
  endfacet
  facet normal 0 0 1
    outer loop
      vertex 15.8888 20.2155 2
      vertex 3.28355 22.0279 2
      vertex 14.584 18.7098 2
    endloop
  endfacet
  facet normal 0 0 1
    outer loop
      vertex 16.7165 22.0279 2
      vertex 3.28355 22.0279 2
      vertex 15.8888 20.2155 2
    endloop
  endfacet
  facet normal 0 0 1
    outer loop
      vertex 17 24 2
      vertex 3.28355 22.0279 2
      vertex 16.7165 22.0279 2
    endloop
  endfacet
  facet normal 0 0 1
    outer loop
      vertex 16.7165 25.9721 2
      vertex 3.28355 22.0279 2
      vertex 17 24 2
    endloop
  endfacet
  facet normal 0 0 1
    outer loop
      vertex 15.8888 27.7845 2
      vertex 3.28355 22.0279 2
      vertex 16.7165 25.9721 2
    endloop
  endfacet
  facet normal 0 0 1
    outer loop
      vertex 14.584 29.2902 2
      vertex 3.28355 22.0279 2
      vertex 15.8888 27.7845 2
    endloop
  endfacet
  facet normal 0 0 1
    outer loop
      vertex 12.9079 30.3674 2
      vertex 3.28355 22.0279 2
      vertex 14.584 29.2902 2
    endloop
  endfacet
  facet normal 0 0 1
    outer loop
      vertex 10.9962 30.9287 2
      vertex 3.28355 22.0279 2
      vertex 12.9079 30.3674 2
    endloop
  endfacet
  facet normal 0 0 1
    outer loop
      vertex 9.0038 30.9287 2
      vertex 3.28355 22.0279 2
      vertex 10.9962 30.9287 2
    endloop
  endfacet
  facet normal 0 0 1
    outer loop
      vertex 7.09209 30.3674 2
      vertex 3.28355 22.0279 2
      vertex 9.0038 30.9287 2
    endloop
  endfacet
  facet normal 0 0 1
    outer loop
      vertex 5.41598 29.2902 2
      vertex 3.28355 22.0279 2
      vertex 7.09209 30.3674 2
    endloop
  endfacet
  facet normal 0 0 1
    outer loop
      vertex 4.11123 27.7845 2
      vertex 3.28355 22.0279 2
      vertex 5.41598 29.2902 2
    endloop
  endfacet
  facet normal 0 0 1
    outer loop
      vertex 3.28355 25.9721 2
      vertex 3.28355 22.0279 2
      vertex 4.11123 27.7845 2
    endloop
  endfacet
  facet normal 0 0 1
    outer loop
      vertex 3 24 2
      vertex 3.28355 22.0279 2
      vertex 3.28355 25.9721 2
    endloop
  endfacet
  facet normal -0.755749 -0.654861 0
    outer loop
      vertex 15.8888 27.7845 10
      vertex 14.584 29.2902 10
      vertex 15.8888 27.7845 2
    endloop
  endfacet
  facet normal -0.755749 -0.654861 0
    outer loop
      vertex 15.8888 27.7845 2
      vertex 14.584 29.2902 10
      vertex 14.584 29.2902 2
    endloop
  endfacet
  facet normal -0.989821 -0.142315 0
    outer loop
      vertex 17 24 10
      vertex 16.7165 25.9721 10
      vertex 17 24 2
    endloop
  endfacet
  facet normal -0.989821 -0.142315 0
    outer loop
      vertex 17 24 2
      vertex 16.7165 25.9721 10
      vertex 16.7165 25.9721 2
    endloop
  endfacet
  facet normal -0.909632 -0.415415 0
    outer loop
      vertex 16.7165 25.9721 10
      vertex 15.8888 27.7845 10
      vertex 16.7165 25.9721 2
    endloop
  endfacet
  facet normal -0.909632 -0.415415 0
    outer loop
      vertex 16.7165 25.9721 2
      vertex 15.8888 27.7845 10
      vertex 15.8888 27.7845 2
    endloop
  endfacet
endsolid OpenSCAD_Model
