solid OpenSCAD_Model
  facet normal -1 0 0
    outer loop
      vertex -40 -40 0
      vertex -40 -40 26
      vertex -40 40 0
    endloop
  endfacet
  facet normal -1 0 0
    outer loop
      vertex -40 -17 19
      vertex -40 -40 26
      vertex -40 -17 26
    endloop
  endfacet
  facet normal -1 0 0
    outer loop
      vertex -40 40 0
      vertex -40 -40 26
      vertex -40 -17 19
    endloop
  endfacet
  facet normal -1 0 0
    outer loop
      vertex -40 40 0
      vertex -40 17 19
      vertex -40 17 26
    endloop
  endfacet
  facet normal -1 0 0
    outer loop
      vertex -40 40 0
      vertex -40 17 26
      vertex -40 40 26
    endloop
  endfacet
  facet normal -1 0 0
    outer loop
      vertex -40 17 19
      vertex -40 40 0
      vertex -40 -17 19
    endloop
  endfacet
  facet normal 0 -1 0
    outer loop
      vertex -40 -40 26
      vertex -40 -40 0
      vertex 40 -40 0
    endloop
  endfacet
  facet normal 0 -1 0
    outer loop
      vertex -17 -40 19
      vertex -40 -40 26
      vertex 40 -40 0
    endloop
  endfacet
  facet normal 0 -1 0
    outer loop
      vertex 40 -40 26
      vertex 17 -40 26
      vertex 40 -40 0
    endloop
  endfacet
  facet normal 0 -1 0
    outer loop
      vertex 17 -40 26
      vertex 17 -40 19
      vertex 40 -40 0
    endloop
  endfacet
  facet normal 0 -1 0
    outer loop
      vertex 17 -40 19
      vertex -17 -40 19
      vertex 40 -40 0
    endloop
  endfacet
  facet normal 0 -1 0
    outer loop
      vertex -17 -40 19
      vertex -17 -40 26
      vertex -40 -40 26
    endloop
  endfacet
  facet normal 0 0 -1
    outer loop
      vertex -40 -40 0
      vertex -40 40 0
      vertex 40 -40 0
    endloop
  endfacet
  facet normal 0 0 -1
    outer loop
      vertex 40 -40 0
      vertex -40 40 0
      vertex 40 40 0
    endloop
  endfacet
  facet normal 0 1 0
    outer loop
      vertex -40 40 0
      vertex -40 40 26
      vertex 40 40 0
    endloop
  endfacet
  facet normal 0 1 0
    outer loop
      vertex -17 40 19
      vertex -40 40 26
      vertex -17 40 26
    endloop
  endfacet
  facet normal 0 1 0
    outer loop
      vertex 40 40 0
      vertex -40 40 26
      vertex -17 40 19
    endloop
  endfacet
  facet normal 0 1 0
    outer loop
      vertex 40 40 0
      vertex 17 40 19
      vertex 17 40 26
    endloop
  endfacet
  facet normal 0 1 0
    outer loop
      vertex 40 40 0
      vertex 17 40 26
      vertex 40 40 26
    endloop
  endfacet
  facet normal 0 1 0
    outer loop
      vertex 17 40 19
      vertex 40 40 0
      vertex -17 40 19
    endloop
  endfacet
  facet normal 0 0 1
    outer loop
      vertex -40 40 26
      vertex -40 17 26
      vertex -17 40 26
    endloop
  endfacet
  facet normal 0.707107 -0.707107 0
    outer loop
      vertex -40 17 26
      vertex -40 17 19
      vertex -17 40 19
    endloop
  endfacet
  facet normal 0.707107 -0.707107 0
    outer loop
      vertex -17 40 26
      vertex -40 17 26
      vertex -17 40 19
    endloop
  endfacet
  facet normal 0 0 1
    outer loop
      vertex -40 17 19
      vertex -40 -17 19
      vertex -17 -40 19
    endloop
  endfacet
  facet normal 0 0 1
    outer loop
      vertex 40 -17 19
      vertex -40 17 19
      vertex 17 -40 19
    endloop
  endfacet
  facet normal 0 0 1
    outer loop
      vertex 17 -40 19
      vertex -40 17 19
      vertex -17 -40 19
    endloop
  endfacet
  facet normal 0 0 1
    outer loop
      vertex 40 17 19
      vertex -40 17 19
      vertex 40 -17 19
    endloop
  endfacet
  facet normal 0 0 1
    outer loop
      vertex 17 40 19
      vertex -40 17 19
      vertex 40 17 19
    endloop
  endfacet
  facet normal 0 0 1
    outer loop
      vertex -17 40 19
      vertex -40 17 19
      vertex 17 40 19
    endloop
  endfacet
  facet normal 0.707107 0.707107 0
    outer loop
      vertex -40 -17 19
      vertex -40 -17 26
      vertex -17 -40 19
    endloop
  endfacet
  facet normal 0.707107 0.707107 0
    outer loop
      vertex -17 -40 19
      vertex -40 -17 26
      vertex -17 -40 26
    endloop
  endfacet
  facet normal 0 0 1
    outer loop
      vertex -40 -17 26
      vertex -40 -40 26
      vertex -17 -40 26
    endloop
  endfacet
  facet normal -0.707107 0.707107 0
    outer loop
      vertex 17 -40 19
      vertex 17 -40 26
      vertex 40 -17 19
    endloop
  endfacet
  facet normal -0.707107 0.707107 0
    outer loop
      vertex 40 -17 19
      vertex 17 -40 26
      vertex 40 -17 26
    endloop
  endfacet
  facet normal 0 0 1
    outer loop
      vertex 40 -17 26
      vertex 17 -40 26
      vertex 40 -40 26
    endloop
  endfacet
  facet normal 1 0 0
    outer loop
      vertex 40 -40 26
      vertex 40 -40 0
      vertex 40 40 0
    endloop
  endfacet
  facet normal 1 0 0
    outer loop
      vertex 40 -17 19
      vertex 40 -40 26
      vertex 40 40 0
    endloop
  endfacet
  facet normal 1 0 0
    outer loop
      vertex 40 40 26
      vertex 40 17 26
      vertex 40 40 0
    endloop
  endfacet
  facet normal 1 0 0
    outer loop
      vertex 40 17 26
      vertex 40 17 19
      vertex 40 40 0
    endloop
  endfacet
  facet normal 1 0 0
    outer loop
      vertex 40 17 19
      vertex 40 -17 19
      vertex 40 40 0
    endloop
  endfacet
  facet normal 1 0 0
    outer loop
      vertex 40 -17 19
      vertex 40 -17 26
      vertex 40 -40 26
    endloop
  endfacet
  facet normal 0 0 1
    outer loop
      vertex 40 40 26
      vertex 17 40 26
      vertex 40 17 26
    endloop
  endfacet
  facet normal -0.707107 -0.707107 0
    outer loop
      vertex 17 40 26
      vertex 17 40 19
      vertex 40 17 19
    endloop
  endfacet
  facet normal -0.707107 -0.707107 0
    outer loop
      vertex 40 17 26
      vertex 17 40 26
      vertex 40 17 19
    endloop
  endfacet
endsolid OpenSCAD_Model
