solid OpenSCAD_Model
  facet normal -1 0 0
    outer loop
      vertex -20 17 5
      vertex -20 20 0
      vertex -20 -17 5
    endloop
  endfacet
  facet normal -1 0 0
    outer loop
      vertex -20 -20 0
      vertex -20 -20 26
      vertex -20 -17 5
    endloop
  endfacet
  facet normal -1 0 0
    outer loop
      vertex -20 -20 0
      vertex -20 -17 5
      vertex -20 20 0
    endloop
  endfacet
  facet normal -1 0 0
    outer loop
      vertex -20 20 0
      vertex -20 17 5
      vertex -20 17 26
    endloop
  endfacet
  facet normal -1 0 0
    outer loop
      vertex -20 20 0
      vertex -20 17 26
      vertex -20 20 26
    endloop
  endfacet
  facet normal -1 0 0
    outer loop
      vertex -20 -17 5
      vertex -20 -20 26
      vertex -20 -17 26
    endloop
  endfacet
  facet normal 0 -1 0
    outer loop
      vertex -17 -20 18
      vertex -20 -20 0
      vertex 20 -20 0
    endloop
  endfacet
  facet normal 0 -1 0
    outer loop
      vertex -17 -20 18
      vertex -17 -20 26
      vertex -20 -20 26
    endloop
  endfacet
  facet normal 0 -1 0
    outer loop
      vertex 20 -20 26
      vertex 17 -20 26
      vertex 20 -20 0
    endloop
  endfacet
  facet normal 0 -1 0
    outer loop
      vertex 17 -20 26
      vertex 17 -20 18
      vertex 20 -20 0
    endloop
  endfacet
  facet normal 0 -1 0
    outer loop
      vertex -20 -20 26
      vertex -20 -20 0
      vertex -17 -20 18
    endloop
  endfacet
  facet normal 0 -1 0
    outer loop
      vertex 17 -20 18
      vertex -17 -20 18
      vertex 20 -20 0
    endloop
  endfacet
  facet normal 0 0 -1
    outer loop
      vertex -17 -17 0
      vertex 17 -17 0
      vertex 20 -20 0
    endloop
  endfacet
  facet normal 0 0 -1
    outer loop
      vertex -17 17 0
      vertex -20 20 0
      vertex 20 20 0
    endloop
  endfacet
  facet normal 0 0 -1
    outer loop
      vertex -20 -20 0
      vertex -20 20 0
      vertex -17 17 0
    endloop
  endfacet
  facet normal 0 0 -1
    outer loop
      vertex 17 17 0
      vertex -17 17 0
      vertex 20 20 0
    endloop
  endfacet
  facet normal 0 0 -1
    outer loop
      vertex -20 -20 0
      vertex -17 17 0
      vertex -17 -17 0
    endloop
  endfacet
  facet normal 0 0 -1
    outer loop
      vertex -20 -20 0
      vertex -17 -17 0
      vertex 20 -20 0
    endloop
  endfacet
  facet normal 0 0 -1
    outer loop
      vertex 20 -20 0
      vertex 17 -17 0
      vertex 20 20 0
    endloop
  endfacet
  facet normal 0 0 -1
    outer loop
      vertex 17 -17 0
      vertex 17 17 0
      vertex 20 20 0
    endloop
  endfacet
  facet normal 0 1 0
    outer loop
      vertex 17 20 18
      vertex 20 20 0
      vertex -17 20 18
    endloop
  endfacet
  facet normal 0 1 0
    outer loop
      vertex -20 20 0
      vertex -20 20 26
      vertex -17 20 18
    endloop
  endfacet
  facet normal 0 1 0
    outer loop
      vertex -20 20 0
      vertex -17 20 18
      vertex 20 20 0
    endloop
  endfacet
  facet normal 0 1 0
    outer loop
      vertex 20 20 0
      vertex 17 20 18
      vertex 17 20 26
    endloop
  endfacet
  facet normal 0 1 0
    outer loop
      vertex 20 20 0
      vertex 17 20 26
      vertex 20 20 26
    endloop
  endfacet
  facet normal 0 1 0
    outer loop
      vertex -17 20 18
      vertex -20 20 26
      vertex -17 20 26
    endloop
  endfacet
  facet normal 0 0 1
    outer loop
      vertex -20 20 26
      vertex -20 17 26
      vertex -17 17 26
    endloop
  endfacet
  facet normal 0 0 1
    outer loop
      vertex -17 20 26
      vertex -20 20 26
      vertex -17 17 26
    endloop
  endfacet
  facet normal 0 -1 0
    outer loop
      vertex -17 17 5
      vertex -17 17 0
      vertex 17 17 0
    endloop
  endfacet
  facet normal 0 -1 0
    outer loop
      vertex 17 17 18
      vertex -17 17 5
      vertex 17 17 5
    endloop
  endfacet
  facet normal 0 -1 0
    outer loop
      vertex 17 17 5
      vertex -17 17 5
      vertex 17 17 0
    endloop
  endfacet
  facet normal 0 -1 0
    outer loop
      vertex 20 17 26
      vertex 17 17 5
      vertex 20 17 5
    endloop
  endfacet
  facet normal 0 -1 0
    outer loop
      vertex 17 17 18
      vertex -17 17 18
      vertex -17 17 5
    endloop
  endfacet
  facet normal 0 -1 0
    outer loop
      vertex 20 17 26
      vertex 17 17 18
      vertex 17 17 5
    endloop
  endfacet
  facet normal 0 -1 0
    outer loop
      vertex -20 17 26
      vertex -17 17 5
      vertex -17 17 18
    endloop
  endfacet
  facet normal 0 -1 0
    outer loop
      vertex -20 17 26
      vertex -17 17 18
      vertex -17 17 26
    endloop
  endfacet
  facet normal 0 -1 0
    outer loop
      vertex 17 17 26
      vertex 17 17 18
      vertex 20 17 26
    endloop
  endfacet
  facet normal 0 -1 0
    outer loop
      vertex -20 17 5
      vertex -17 17 5
      vertex -20 17 26
    endloop
  endfacet
  facet normal 0 0 1
    outer loop
      vertex -17 -17 5
      vertex -17 17 5
      vertex -20 17 5
    endloop
  endfacet
  facet normal 0 0 1
    outer loop
      vertex -20 -17 5
      vertex -17 -17 5
      vertex -20 17 5
    endloop
  endfacet
  facet normal 0 1 0
    outer loop
      vertex -17 -17 26
      vertex -17 -17 18
      vertex -20 -17 26
    endloop
  endfacet
  facet normal 0 1 0
    outer loop
      vertex 17 -17 5
      vertex -17 -17 18
      vertex 20 -17 5
    endloop
  endfacet
  facet normal 0 1 0
    outer loop
      vertex 20 -17 26
      vertex 17 -17 18
      vertex 17 -17 26
    endloop
  endfacet
  facet normal 0 1 0
    outer loop
      vertex 20 -17 5
      vertex 17 -17 18
      vertex 20 -17 26
    endloop
  endfacet
  facet normal 0 1 0
    outer loop
      vertex -17 -17 18
      vertex 17 -17 18
      vertex 20 -17 5
    endloop
  endfacet
  facet normal 0 1 0
    outer loop
      vertex -17 -17 5
      vertex -17 -17 18
      vertex 17 -17 0
    endloop
  endfacet
  facet normal 0 1 0
    outer loop
      vertex -17 -17 18
      vertex 17 -17 5
      vertex 17 -17 0
    endloop
  endfacet
  facet normal 0 1 0
    outer loop
      vertex -17 -17 5
      vertex 17 -17 0
      vertex -17 -17 0
    endloop
  endfacet
  facet normal 0 1 0
    outer loop
      vertex -20 -17 26
      vertex -17 -17 18
      vertex -17 -17 5
    endloop
  endfacet
  facet normal 0 1 0
    outer loop
      vertex -20 -17 5
      vertex -20 -17 26
      vertex -17 -17 5
    endloop
  endfacet
  facet normal 0 0 1
    outer loop
      vertex -20 -17 26
      vertex -20 -20 26
      vertex -17 -20 26
    endloop
  endfacet
  facet normal 0 0 1
    outer loop
      vertex -17 -17 26
      vertex -20 -17 26
      vertex -17 -20 26
    endloop
  endfacet
  facet normal 1 0 0
    outer loop
      vertex -17 -17 18
      vertex -17 -17 26
      vertex -17 -20 26
    endloop
  endfacet
  facet normal 1 0 0
    outer loop
      vertex -17 -20 18
      vertex -17 -17 18
      vertex -17 -20 26
    endloop
  endfacet
  facet normal 0 0 1
    outer loop
      vertex 17 -20 18
      vertex 17 -17 18
      vertex -17 -17 18
    endloop
  endfacet
  facet normal 0 0 1
    outer loop
      vertex -17 -20 18
      vertex 17 -20 18
      vertex -17 -17 18
    endloop
  endfacet
  facet normal -1 0 0
    outer loop
      vertex 17 -17 26
      vertex 17 -17 18
      vertex 17 -20 26
    endloop
  endfacet
  facet normal -1 0 0
    outer loop
      vertex 17 -20 26
      vertex 17 -17 18
      vertex 17 -20 18
    endloop
  endfacet
  facet normal 0 0 1
    outer loop
      vertex 17 -17 26
      vertex 17 -20 26
      vertex 20 -20 26
    endloop
  endfacet
  facet normal 0 0 1
    outer loop
      vertex 20 -17 26
      vertex 17 -17 26
      vertex 20 -20 26
    endloop
  endfacet
  facet normal 1 0 0
    outer loop
      vertex 20 -17 5
      vertex 20 -20 0
      vertex 20 20 0
    endloop
  endfacet
  facet normal 1 0 0
    outer loop
      vertex 20 -17 5
      vertex 20 -17 26
      vertex 20 -20 26
    endloop
  endfacet
  facet normal 1 0 0
    outer loop
      vertex 20 20 26
      vertex 20 17 26
      vertex 20 20 0
    endloop
  endfacet
  facet normal 1 0 0
    outer loop
      vertex 20 17 26
      vertex 20 17 5
      vertex 20 20 0
    endloop
  endfacet
  facet normal 1 0 0
    outer loop
      vertex 20 -20 26
      vertex 20 -20 0
      vertex 20 -17 5
    endloop
  endfacet
  facet normal 1 0 0
    outer loop
      vertex 20 17 5
      vertex 20 -17 5
      vertex 20 20 0
    endloop
  endfacet
  facet normal 1 0 0
    outer loop
      vertex -17 17 0
      vertex -17 17 5
      vertex -17 -17 5
    endloop
  endfacet
  facet normal 1 0 0
    outer loop
      vertex -17 -17 0
      vertex -17 17 0
      vertex -17 -17 5
    endloop
  endfacet
  facet normal -1 0 0
    outer loop
      vertex 17 17 5
      vertex 17 17 0
      vertex 17 -17 5
    endloop
  endfacet
  facet normal -1 0 0
    outer loop
      vertex 17 -17 5
      vertex 17 17 0
      vertex 17 -17 0
    endloop
  endfacet
  facet normal 0 0 1
    outer loop
      vertex 17 20 26
      vertex 17 17 26
      vertex 20 17 26
    endloop
  endfacet
  facet normal 0 0 1
    outer loop
      vertex 20 20 26
      vertex 17 20 26
      vertex 20 17 26
    endloop
  endfacet
  facet normal -1 0 0
    outer loop
      vertex 17 20 26
      vertex 17 20 18
      vertex 17 17 26
    endloop
  endfacet
  facet normal -1 0 0
    outer loop
      vertex 17 17 26
      vertex 17 20 18
      vertex 17 17 18
    endloop
  endfacet
  facet normal 0 0 1
    outer loop
      vertex 17 17 18
      vertex 17 20 18
      vertex -17 20 18
    endloop
  endfacet
  facet normal 0 0 1
    outer loop
      vertex -17 17 18
      vertex 17 17 18
      vertex -17 20 18
    endloop
  endfacet
  facet normal 1 0 0
    outer loop
      vertex -17 20 18
      vertex -17 20 26
      vertex -17 17 26
    endloop
  endfacet
  facet normal 1 0 0
    outer loop
      vertex -17 17 18
      vertex -17 20 18
      vertex -17 17 26
    endloop
  endfacet
  facet normal 0 0 1
    outer loop
      vertex 20 -17 5
      vertex 20 17 5
      vertex 17 17 5
    endloop
  endfacet
  facet normal 0 0 1
    outer loop
      vertex 17 -17 5
      vertex 20 -17 5
      vertex 17 17 5
    endloop
  endfacet
endsolid OpenSCAD_Model
