solid OpenSCAD_Model
  facet normal -1 0 0
    outer loop
      vertex -20 -20 0
      vertex -20 -20 26
      vertex -20 20 0
    endloop
  endfacet
  facet normal -1 0 0
    outer loop
      vertex -20 20 0
      vertex -20 -20 26
      vertex -20 20 26
    endloop
  endfacet
  facet normal 0 -1 0
    outer loop
      vertex -17 -20 21
      vertex -20 -20 0
      vertex 20 -20 0
    endloop
  endfacet
  facet normal 0 -1 0
    outer loop
      vertex -17 -20 21
      vertex -17 -20 26
      vertex -20 -20 26
    endloop
  endfacet
  facet normal 0 -1 0
    outer loop
      vertex 20 -20 26
      vertex 17 -20 26
      vertex 20 -20 0
    endloop
  endfacet
  facet normal 0 -1 0
    outer loop
      vertex 17 -20 26
      vertex 17 -20 21
      vertex 20 -20 0
    endloop
  endfacet
  facet normal 0 -1 0
    outer loop
      vertex -20 -20 26
      vertex -20 -20 0
      vertex -17 -20 21
    endloop
  endfacet
  facet normal 0 -1 0
    outer loop
      vertex 17 -20 21
      vertex -17 -20 21
      vertex 20 -20 0
    endloop
  endfacet
  facet normal 0 0 -1
    outer loop
      vertex -20 -20 0
      vertex -20 20 0
      vertex 20 -20 0
    endloop
  endfacet
  facet normal 0 0 -1
    outer loop
      vertex 20 -20 0
      vertex -20 20 0
      vertex 20 20 0
    endloop
  endfacet
  facet normal 0 1 0
    outer loop
      vertex 17 20 21
      vertex 20 20 0
      vertex -17 20 21
    endloop
  endfacet
  facet normal 0 1 0
    outer loop
      vertex -20 20 0
      vertex -20 20 26
      vertex -17 20 21
    endloop
  endfacet
  facet normal 0 1 0
    outer loop
      vertex -20 20 0
      vertex -17 20 21
      vertex 20 20 0
    endloop
  endfacet
  facet normal 0 1 0
    outer loop
      vertex 20 20 0
      vertex 17 20 21
      vertex 17 20 26
    endloop
  endfacet
  facet normal 0 1 0
    outer loop
      vertex 20 20 0
      vertex 17 20 26
      vertex 20 20 26
    endloop
  endfacet
  facet normal 0 1 0
    outer loop
      vertex -17 20 21
      vertex -20 20 26
      vertex -17 20 26
    endloop
  endfacet
  facet normal 0 0 1
    outer loop
      vertex -20 20 26
      vertex -20 -20 26
      vertex -17 -20 26
    endloop
  endfacet
  facet normal 0 0 1
    outer loop
      vertex -17 20 26
      vertex -20 20 26
      vertex -17 -20 26
    endloop
  endfacet
  facet normal 1 0 0
    outer loop
      vertex -17 -17 21
      vertex -17 -17 8
      vertex -17 17 8
    endloop
  endfacet
  facet normal 1 0 0
    outer loop
      vertex -17 20 26
      vertex -17 -17 21
      vertex -17 17 21
    endloop
  endfacet
  facet normal 1 0 0
    outer loop
      vertex -17 17 21
      vertex -17 -17 21
      vertex -17 17 8
    endloop
  endfacet
  facet normal 1 0 0
    outer loop
      vertex -17 20 26
      vertex -17 17 21
      vertex -17 20 21
    endloop
  endfacet
  facet normal 1 0 0
    outer loop
      vertex -17 -20 26
      vertex -17 -17 21
      vertex -17 20 26
    endloop
  endfacet
  facet normal 1 0 0
    outer loop
      vertex -17 -20 21
      vertex -17 -17 21
      vertex -17 -20 26
    endloop
  endfacet
  facet normal 0 0 1
    outer loop
      vertex 17 -20 21
      vertex 17 -17 21
      vertex -17 -17 21
    endloop
  endfacet
  facet normal 0 0 1
    outer loop
      vertex -17 -20 21
      vertex 17 -20 21
      vertex -17 -17 21
    endloop
  endfacet
  facet normal -1 0 0
    outer loop
      vertex 17 20 26
      vertex 17 20 21
      vertex 17 -20 26
    endloop
  endfacet
  facet normal -1 0 0
    outer loop
      vertex 17 -20 26
      vertex 17 20 21
      vertex 17 17 21
    endloop
  endfacet
  facet normal -1 0 0
    outer loop
      vertex 17 -20 26
      vertex 17 17 21
      vertex 17 17 8
    endloop
  endfacet
  facet normal -1 0 0
    outer loop
      vertex 17 -17 21
      vertex 17 17 8
      vertex 17 -17 8
    endloop
  endfacet
  facet normal -1 0 0
    outer loop
      vertex 17 -20 26
      vertex 17 17 8
      vertex 17 -17 21
    endloop
  endfacet
  facet normal -1 0 0
    outer loop
      vertex 17 -20 21
      vertex 17 -20 26
      vertex 17 -17 21
    endloop
  endfacet
  facet normal 0 0 1
    outer loop
      vertex 17 20 26
      vertex 17 -20 26
      vertex 20 -20 26
    endloop
  endfacet
  facet normal 0 0 1
    outer loop
      vertex 20 20 26
      vertex 17 20 26
      vertex 20 -20 26
    endloop
  endfacet
  facet normal 1 0 0
    outer loop
      vertex 20 -20 26
      vertex 20 -20 0
      vertex 20 20 0
    endloop
  endfacet
  facet normal 1 0 0
    outer loop
      vertex 20 20 26
      vertex 20 -20 26
      vertex 20 20 0
    endloop
  endfacet
  facet normal 0 0 1
    outer loop
      vertex 17 17 21
      vertex 17 20 21
      vertex -17 20 21
    endloop
  endfacet
  facet normal 0 0 1
    outer loop
      vertex -17 17 21
      vertex 17 17 21
      vertex -17 20 21
    endloop
  endfacet
  facet normal 0 1 0
    outer loop
      vertex 17 -17 21
      vertex 17 -17 8
      vertex -17 -17 21
    endloop
  endfacet
  facet normal 0 1 0
    outer loop
      vertex -17 -17 21
      vertex 17 -17 8
      vertex -17 -17 8
    endloop
  endfacet
  facet normal 0 -1 0
    outer loop
      vertex 17 17 8
      vertex 17 17 21
      vertex -17 17 21
    endloop
  endfacet
  facet normal 0 -1 0
    outer loop
      vertex -17 17 8
      vertex 17 17 8
      vertex -17 17 21
    endloop
  endfacet
  facet normal 0 0 1
    outer loop
      vertex 17 -17 8
      vertex 17 17 8
      vertex -17 17 8
    endloop
  endfacet
  facet normal 0 0 1
    outer loop
      vertex -17 -17 8
      vertex 17 -17 8
      vertex -17 17 8
    endloop
  endfacet
endsolid OpenSCAD_Model
