solid OpenSCAD_Model
  facet normal 1 0 0
    outer loop
      vertex 10 -5 0
      vertex 10 5 0
      vertex 10 5 20
    endloop
  endfacet
  facet normal 1 0 0
    outer loop
      vertex 10 -5 20
      vertex 10 -5 0
      vertex 10 5 20
    endloop
  endfacet
  facet normal 0 1 0
    outer loop
      vertex -5 5 20
      vertex 10 5 20
      vertex -5 5 0
    endloop
  endfacet
  facet normal 0 1 0
    outer loop
      vertex -5 5 0
      vertex 10 5 20
      vertex 10 5 0
    endloop
  endfacet
  facet normal 0 0 -1
    outer loop
      vertex -31 -86 0
      vertex -5 -86 0
      vertex -31 -91 0
    endloop
  endfacet
  facet normal 0 0 -1
    outer loop
      vertex 0 0 0
      vertex -5 -86 0
      vertex -5 5 0
    endloop
  endfacet
  facet normal 0 0 -1
    outer loop
      vertex 0 0 0
      vertex -5 5 0
      vertex 6 0 0
    endloop
  endfacet
  facet normal 0 0 -1
    outer loop
      vertex 10 5 0
      vertex 6 -5 0
      vertex 6 0 0
    endloop
  endfacet
  facet normal 0 0 -1
    outer loop
      vertex 10 5 0
      vertex 6 0 0
      vertex -5 5 0
    endloop
  endfacet
  facet normal 0 0 -1
    outer loop
      vertex 0 -91 0
      vertex -5 -86 0
      vertex 0 0 0
    endloop
  endfacet
  facet normal 0 0 -1
    outer loop
      vertex -31 -91 0
      vertex -5 -86 0
      vertex 0 -91 0
    endloop
  endfacet
  facet normal 0 0 -1
    outer loop
      vertex 6 -5 0
      vertex 10 5 0
      vertex 10 -5 0
    endloop
  endfacet
  facet normal 0 -1 0
    outer loop
      vertex 6 -5 0
      vertex 10 -5 0
      vertex 10 -5 20
    endloop
  endfacet
  facet normal 0 -1 0
    outer loop
      vertex 6 -5 20
      vertex 6 -5 0
      vertex 10 -5 20
    endloop
  endfacet
  facet normal 0 0 1
    outer loop
      vertex 6 0 20
      vertex 10 5 20
      vertex 0 0 20
    endloop
  endfacet
  facet normal 0 0 1
    outer loop
      vertex -5 -86 20
      vertex 0 -91 20
      vertex 0 0 20
    endloop
  endfacet
  facet normal 0 0 1
    outer loop
      vertex 6 -5 20
      vertex 10 -5 20
      vertex 6 0 20
    endloop
  endfacet
  facet normal 0 0 1
    outer loop
      vertex -5 -86 20
      vertex -31 -86 20
      vertex -31 -91 20
    endloop
  endfacet
  facet normal 0 0 1
    outer loop
      vertex 10 -5 20
      vertex 10 5 20
      vertex 6 0 20
    endloop
  endfacet
  facet normal 0 0 1
    outer loop
      vertex 10 5 20
      vertex -5 5 20
      vertex 0 0 20
    endloop
  endfacet
  facet normal 0 0 1
    outer loop
      vertex -31 -91 20
      vertex 0 -91 20
      vertex -5 -86 20
    endloop
  endfacet
  facet normal 0 0 1
    outer loop
      vertex -5 5 20
      vertex -5 -86 20
      vertex 0 0 20
    endloop
  endfacet
  facet normal -1 0 0
    outer loop
      vertex -5 -86 20
      vertex -5 5 20
      vertex -5 -86 0
    endloop
  endfacet
  facet normal -1 0 0
    outer loop
      vertex -5 -86 0
      vertex -5 5 20
      vertex -5 5 0
    endloop
  endfacet
  facet normal 0 -1 0
    outer loop
      vertex -31 -91 0
      vertex 0 -91 0
      vertex 0 -91 20
    endloop
  endfacet
  facet normal 0 -1 0
    outer loop
      vertex -31 -91 20
      vertex -31 -91 0
      vertex 0 -91 20
    endloop
  endfacet
  facet normal -1 0 0
    outer loop
      vertex -31 -91 20
      vertex -31 -86 20
      vertex -31 -91 0
    endloop
  endfacet
  facet normal -1 0 0
    outer loop
      vertex -31 -91 0
      vertex -31 -86 20
      vertex -31 -86 0
    endloop
  endfacet
  facet normal 1 0 0
    outer loop
      vertex 0 -91 0
      vertex 0 0 0
      vertex 0 0 20
    endloop
  endfacet
  facet normal 1 0 0
    outer loop
      vertex 0 -91 20
      vertex 0 -91 0
      vertex 0 0 20
    endloop
  endfacet
  facet normal 0 -1 0
    outer loop
      vertex 0 0 0
      vertex 6 0 0
      vertex 6 0 20
    endloop
  endfacet
  facet normal 0 -1 0
    outer loop
      vertex 0 0 20
      vertex 0 0 0
      vertex 6 0 20
    endloop
  endfacet
  facet normal -1 0 0
    outer loop
      vertex 6 -5 20
      vertex 6 0 20
      vertex 6 -5 0
    endloop
  endfacet
  facet normal -1 0 0
    outer loop
      vertex 6 -5 0
      vertex 6 0 20
      vertex 6 0 0
    endloop
  endfacet
  facet normal 0 1 0
    outer loop
      vertex -31 -86 20
      vertex -5 -86 20
      vertex -31 -86 0
    endloop
  endfacet
  facet normal 0 1 0
    outer loop
      vertex -31 -86 0
      vertex -5 -86 20
      vertex -5 -86 0
    endloop
  endfacet
endsolid OpenSCAD_Model
