solid OpenSCAD_Model
  facet normal 0 -1 0
    outer loop
      vertex -31 -91 20
      vertex -31 -91 0
      vertex 0 -91 0
    endloop
  endfacet
  facet normal 0 -1 0
    outer loop
      vertex 0 -91 20
      vertex -31 -91 20
      vertex 0 -91 0
    endloop
  endfacet
  facet normal 0 0 -1
    outer loop
      vertex -31 -91 0
      vertex -31 -86 0
      vertex 0 -91 0
    endloop
  endfacet
  facet normal 0 0 -1
    outer loop
      vertex 0 -91 0
      vertex -31 -86 0
      vertex -5 -86 0
    endloop
  endfacet
  facet normal 0 0 -1
    outer loop
      vertex 0 -91 0
      vertex -5 -86 0
      vertex -5 5 0
    endloop
  endfacet
  facet normal 0 0 -1
    outer loop
      vertex 6 0 0
      vertex -5 5 0
      vertex 10 5 0
    endloop
  endfacet
  facet normal 0 0 -1
    outer loop
      vertex 0 0 0
      vertex -5 5 0
      vertex 6 0 0
    endloop
  endfacet
  facet normal 0 0 -1
    outer loop
      vertex 6 -5 0
      vertex 6 0 0
      vertex 10 5 0
    endloop
  endfacet
  facet normal 0 0 -1
    outer loop
      vertex 0 -91 0
      vertex -5 5 0
      vertex 0 0 0
    endloop
  endfacet
  facet normal 0 0 -1
    outer loop
      vertex 6 -5 0
      vertex 10 5 0
      vertex 10 -5 0
    endloop
  endfacet
  facet normal -1 0 0
    outer loop
      vertex -31 -91 0
      vertex -31 -91 20
      vertex -31 -86 0
    endloop
  endfacet
  facet normal -1 0 0
    outer loop
      vertex -31 -86 0
      vertex -31 -91 20
      vertex -31 -86 20
    endloop
  endfacet
  facet normal 0 0 1
    outer loop
      vertex -31 -86 20
      vertex -31 -91 20
      vertex 0 -91 20
    endloop
  endfacet
  facet normal 0 0 1
    outer loop
      vertex -5 -86 20
      vertex -31 -86 20
      vertex 0 -91 20
    endloop
  endfacet
  facet normal 0 0 1
    outer loop
      vertex 10 5 20
      vertex 0 0 20
      vertex 6 0 20
    endloop
  endfacet
  facet normal 0 0 1
    outer loop
      vertex 10 -5 20
      vertex 6 0 20
      vertex 6 -5 20
    endloop
  endfacet
  facet normal 0 0 1
    outer loop
      vertex 10 5 20
      vertex 6 0 20
      vertex 10 -5 20
    endloop
  endfacet
  facet normal 0 0 1
    outer loop
      vertex -5 5 20
      vertex 0 0 20
      vertex 10 5 20
    endloop
  endfacet
  facet normal 0 0 1
    outer loop
      vertex 0 0 20
      vertex -5 -86 20
      vertex 0 -91 20
    endloop
  endfacet
  facet normal 0 0 1
    outer loop
      vertex -5 5 20
      vertex -5 -86 20
      vertex 0 0 20
    endloop
  endfacet
  facet normal 1 0 0
    outer loop
      vertex 0 -91 20
      vertex 0 -91 0
      vertex 0 0 0
    endloop
  endfacet
  facet normal 1 0 0
    outer loop
      vertex 0 0 20
      vertex 0 -91 20
      vertex 0 0 0
    endloop
  endfacet
  facet normal 0 -1 0
    outer loop
      vertex 0 0 20
      vertex 0 0 0
      vertex 6 0 0
    endloop
  endfacet
  facet normal 0 -1 0
    outer loop
      vertex 6 0 20
      vertex 0 0 20
      vertex 6 0 0
    endloop
  endfacet
  facet normal -1 0 0
    outer loop
      vertex 6 -5 0
      vertex 6 -5 20
      vertex 6 0 0
    endloop
  endfacet
  facet normal -1 0 0
    outer loop
      vertex 6 0 0
      vertex 6 -5 20
      vertex 6 0 20
    endloop
  endfacet
  facet normal 0 -1 0
    outer loop
      vertex 6 -5 20
      vertex 6 -5 0
      vertex 10 -5 0
    endloop
  endfacet
  facet normal 0 -1 0
    outer loop
      vertex 10 -5 20
      vertex 6 -5 20
      vertex 10 -5 0
    endloop
  endfacet
  facet normal 1 0 0
    outer loop
      vertex 10 -5 20
      vertex 10 -5 0
      vertex 10 5 0
    endloop
  endfacet
  facet normal 1 0 0
    outer loop
      vertex 10 5 20
      vertex 10 -5 20
      vertex 10 5 0
    endloop
  endfacet
  facet normal 0 1 0
    outer loop
      vertex -5 5 0
      vertex -5 5 20
      vertex 10 5 0
    endloop
  endfacet
  facet normal 0 1 0
    outer loop
      vertex 10 5 0
      vertex -5 5 20
      vertex 10 5 20
    endloop
  endfacet
  facet normal -1 0 0
    outer loop
      vertex -5 -86 0
      vertex -5 -86 20
      vertex -5 5 0
    endloop
  endfacet
  facet normal -1 0 0
    outer loop
      vertex -5 5 0
      vertex -5 -86 20
      vertex -5 5 20
    endloop
  endfacet
  facet normal 0 1 0
    outer loop
      vertex -31 -86 0
      vertex -31 -86 20
      vertex -5 -86 0
    endloop
  endfacet
  facet normal 0 1 0
    outer loop
      vertex -5 -86 0
      vertex -31 -86 20
      vertex -5 -86 20
    endloop
  endfacet
  facet normal 0 -1 0
    outer loop
      vertex -41 -76 20
      vertex -41 -76 0
      vertex -10 -76 0
    endloop
  endfacet
  facet normal 0 -1 0
    outer loop
      vertex -10 -76 20
      vertex -41 -76 20
      vertex -10 -76 0
    endloop
  endfacet
  facet normal 0 0 -1
    outer loop
      vertex -41 -76 0
      vertex -41 -71 0
      vertex -10 -76 0
    endloop
  endfacet
  facet normal 0 0 -1
    outer loop
      vertex -10 -76 0
      vertex -41 -71 0
      vertex -15 -71 0
    endloop
  endfacet
  facet normal 0 0 -1
    outer loop
      vertex -10 -76 0
      vertex -15 -71 0
      vertex -15 20 0
    endloop
  endfacet
  facet normal 0 0 -1
    outer loop
      vertex -4 15 0
      vertex -15 20 0
      vertex 0 20 0
    endloop
  endfacet
  facet normal 0 0 -1
    outer loop
      vertex -10 15 0
      vertex -15 20 0
      vertex -4 15 0
    endloop
  endfacet
  facet normal 0 0 -1
    outer loop
      vertex -4 10 0
      vertex -4 15 0
      vertex 0 20 0
    endloop
  endfacet
  facet normal 0 0 -1
    outer loop
      vertex -10 -76 0
      vertex -15 20 0
      vertex -10 15 0
    endloop
  endfacet
  facet normal 0 0 -1
    outer loop
      vertex -4 10 0
      vertex 0 20 0
      vertex 0 10 0
    endloop
  endfacet
  facet normal -1 0 0
    outer loop
      vertex -41 -76 0
      vertex -41 -76 20
      vertex -41 -71 0
    endloop
  endfacet
  facet normal -1 0 0
    outer loop
      vertex -41 -71 0
      vertex -41 -76 20
      vertex -41 -71 20
    endloop
  endfacet
  facet normal 0 0 1
    outer loop
      vertex -41 -71 20
      vertex -41 -76 20
      vertex -10 -76 20
    endloop
  endfacet
  facet normal 0 0 1
    outer loop
      vertex -15 -71 20
      vertex -41 -71 20
      vertex -10 -76 20
    endloop
  endfacet
  facet normal 0 0 1
    outer loop
      vertex 0 20 20
      vertex -10 15 20
      vertex -4 15 20
    endloop
  endfacet
  facet normal 0 0 1
    outer loop
      vertex 0 10 20
      vertex -4 15 20
      vertex -4 10 20
    endloop
  endfacet
  facet normal 0 0 1
    outer loop
      vertex 0 20 20
      vertex -4 15 20
      vertex 0 10 20
    endloop
  endfacet
  facet normal 0 0 1
    outer loop
      vertex -15 20 20
      vertex -10 15 20
      vertex 0 20 20
    endloop
  endfacet
  facet normal 0 0 1
    outer loop
      vertex -10 15 20
      vertex -15 -71 20
      vertex -10 -76 20
    endloop
  endfacet
  facet normal 0 0 1
    outer loop
      vertex -15 20 20
      vertex -15 -71 20
      vertex -10 15 20
    endloop
  endfacet
  facet normal 1 0 0
    outer loop
      vertex -10 -76 20
      vertex -10 -76 0
      vertex -10 15 0
    endloop
  endfacet
  facet normal 1 0 0
    outer loop
      vertex -10 15 20
      vertex -10 -76 20
      vertex -10 15 0
    endloop
  endfacet
  facet normal 0 -1 0
    outer loop
      vertex -10 15 20
      vertex -10 15 0
      vertex -4 15 0
    endloop
  endfacet
  facet normal 0 -1 0
    outer loop
      vertex -4 15 20
      vertex -10 15 20
      vertex -4 15 0
    endloop
  endfacet
  facet normal -1 0 0
    outer loop
      vertex -4 10 0
      vertex -4 10 20
      vertex -4 15 0
    endloop
  endfacet
  facet normal -1 0 0
    outer loop
      vertex -4 15 0
      vertex -4 10 20
      vertex -4 15 20
    endloop
  endfacet
  facet normal 0 -1 0
    outer loop
      vertex -4 10 20
      vertex -4 10 0
      vertex 0 10 0
    endloop
  endfacet
  facet normal 0 -1 0
    outer loop
      vertex 0 10 20
      vertex -4 10 20
      vertex 0 10 0
    endloop
  endfacet
  facet normal 1 0 0
    outer loop
      vertex 0 10 20
      vertex 0 10 0
      vertex 0 20 0
    endloop
  endfacet
  facet normal 1 0 0
    outer loop
      vertex 0 20 20
      vertex 0 10 20
      vertex 0 20 0
    endloop
  endfacet
  facet normal 0 1 0
    outer loop
      vertex -15 20 0
      vertex -15 20 20
      vertex 0 20 0
    endloop
  endfacet
  facet normal 0 1 0
    outer loop
      vertex 0 20 0
      vertex -15 20 20
      vertex 0 20 20
    endloop
  endfacet
  facet normal -1 0 0
    outer loop
      vertex -15 -71 0
      vertex -15 -71 20
      vertex -15 20 0
    endloop
  endfacet
  facet normal -1 0 0
    outer loop
      vertex -15 20 0
      vertex -15 -71 20
      vertex -15 20 20
    endloop
  endfacet
  facet normal 0 1 0
    outer loop
      vertex -41 -71 0
      vertex -41 -71 20
      vertex -15 -71 0
    endloop
  endfacet
  facet normal 0 1 0
    outer loop
      vertex -15 -71 0
      vertex -41 -71 20
      vertex -15 -71 20
    endloop
  endfacet
endsolid OpenSCAD_Model
